<svg width="538" height="583" viewBox="0 0 538 583" fill="none" xmlns="http://www.w3.org/2000/svg">
<g opacity="0.1" filter="url(#filter0_d_376_182)">
<path fill-rule="evenodd" clip-rule="evenodd" d="M270 477C401.444 477 508 370.444 508 239C508 107.556 401.444 1 270 1C138.556 1 32 107.556 32 239C32 370.444 138.556 477 270 477ZM270 478C401.996 478 509 370.996 509 239C509 107.004 401.996 0 270 0C138.004 0 31 107.004 31 239C31 370.996 138.004 478 270 478Z" fill="white"/>
</g>
<path d="M486.735 255.76C488.775 255.76 489.735 256.84 489.735 258.32C489.735 259.94 488.675 260.98 487.075 260.98C485.515 260.98 484.475 260.02 484.475 258.34H481.955C481.955 261.5 484.175 263.26 487.035 263.26C489.995 263.26 492.335 261.36 492.335 258.36C492.335 255.78 490.595 254.14 488.355 253.7L491.915 250.42V248.38H482.635V250.64H488.715L484.955 254.1V255.76H486.735Z" fill="white"/>
<path d="M495.666 263.24C496.546 263.24 497.286 262.52 497.286 261.66C497.286 260.78 496.546 260.06 495.666 260.06C494.786 260.06 494.046 260.78 494.046 261.66C494.046 262.52 494.786 263.24 495.666 263.24Z" fill="white"/>
<path d="M504.174 263.24C507.434 263.24 509.654 261.08 509.654 257.92C509.654 255.04 507.714 253.06 504.794 253.06C503.794 253.06 502.914 253.32 502.214 253.78L502.994 250.74H508.774V248.38H501.154L499.354 256.04L501.614 256.52C502.134 255.76 503.154 255.2 504.274 255.2C506.034 255.2 507.054 256.36 507.054 258.06C507.054 259.84 505.954 260.96 504.234 260.96C502.614 260.96 501.634 259.98 501.634 258.32H499.094C499.094 261.28 501.114 263.24 504.174 263.24Z" fill="white"/>
<path d="M518.586 251.94C518.586 249.7 516.986 248.1 514.766 248.1C512.546 248.1 510.946 249.7 510.946 251.94C510.946 254.2 512.546 255.78 514.766 255.78C516.986 255.78 518.586 254.2 518.586 251.94ZM526.606 248.4H524.166L513.066 263H515.506L526.606 248.4ZM516.646 251.94C516.646 253.1 515.886 253.9 514.766 253.9C513.666 253.9 512.906 253.1 512.906 251.94C512.906 250.78 513.646 249.98 514.766 249.98C515.886 249.98 516.646 250.78 516.646 251.94ZM528.746 259.42C528.746 257.18 527.166 255.58 524.946 255.58C522.706 255.58 521.126 257.18 521.126 259.42C521.126 261.66 522.706 263.26 524.946 263.26C527.166 263.26 528.746 261.66 528.746 259.42ZM526.806 259.42C526.806 260.58 526.046 261.38 524.946 261.38C523.826 261.38 523.066 260.58 523.066 259.42C523.066 258.26 523.826 257.46 524.946 257.46C526.046 257.46 526.806 258.26 526.806 259.42Z" fill="white"/>
<path d="M480.201 281.96V280.92H475.513V276.6H481.113V275.544H474.361V287H475.513V281.96H480.201Z" fill="white"/>
<path d="M481.655 283.128C481.655 285.48 483.319 287.192 485.591 287.192C487.863 287.192 489.527 285.48 489.527 283.128C489.527 280.76 487.863 279.048 485.591 279.048C483.319 279.048 481.655 280.76 481.655 283.128ZM482.775 283.112C482.775 281.32 483.927 280.04 485.591 280.04C487.239 280.04 488.407 281.32 488.407 283.112C488.407 284.936 487.239 286.2 485.591 286.2C483.927 286.2 482.775 284.936 482.775 283.112Z" fill="white"/>
<path d="M496.545 279.256V283.368C496.545 285.208 495.665 286.2 494.177 286.2C492.945 286.2 492.129 285.544 492.129 283.704V279.24H491.009V284.056C491.009 285.944 492.001 287.192 493.825 287.192C495.041 287.192 496.113 286.584 496.545 285.688L496.689 287H497.649V279.256H496.545Z" fill="white"/>
<path d="M501.053 287V282.952C501.053 281.208 501.949 280.056 503.533 280.056C504.813 280.056 505.629 280.696 505.629 282.504V287H506.733V282.264C506.733 280.312 505.853 279.048 503.725 279.048C502.605 279.048 501.581 279.608 501.069 280.6L500.909 279.256H499.949V287H501.053Z" fill="white"/>
<path d="M511.973 287.192C513.269 287.192 514.357 286.616 514.901 285.416L515.013 287H515.973V275.336H514.869V280.728C514.325 279.608 513.301 279.048 512.021 279.048C509.717 279.048 508.389 280.808 508.389 283.144C508.389 285.464 509.717 287.192 511.973 287.192ZM512.165 286.184C510.485 286.184 509.509 284.904 509.509 283.112C509.509 281.336 510.485 280.04 512.165 280.04C513.861 280.04 514.853 281.336 514.853 283.112C514.853 284.904 513.861 286.184 512.165 286.184Z" fill="white"/>
<path d="M521.525 287.192C523.349 287.192 524.549 286.312 524.965 284.68H523.909C523.621 285.704 522.805 286.248 521.541 286.248C519.877 286.248 518.885 285.16 518.805 283.272H524.965V282.728C524.965 280.536 523.541 279.048 521.445 279.048C519.237 279.048 517.733 280.712 517.733 283.128C517.733 285.56 519.253 287.192 521.525 287.192ZM521.445 279.992C522.901 279.992 523.861 280.984 523.861 282.472H518.837C519.029 280.952 519.989 279.992 521.445 279.992Z" fill="white"/>
<path d="M530.778 279.16C530.506 279.096 530.298 279.08 530.058 279.08C528.97 279.08 528.154 279.624 527.85 280.456L527.77 279.256H526.73V287H527.834V282.584C527.834 281.112 528.746 280.152 530.17 280.152H530.778V279.16Z" fill="white"/>
<path d="M531.59 284.824C531.59 286.264 532.678 287.192 534.422 287.192C536.182 287.192 537.366 286.28 537.366 284.888C537.366 283.768 536.758 283.144 535.414 282.808L534.086 282.472C533.238 282.264 532.822 281.848 532.822 281.256C532.822 280.424 533.43 279.96 534.518 279.96C535.558 279.96 536.182 280.488 536.214 281.384H537.286C537.238 279.944 536.182 279.048 534.55 279.048C532.886 279.048 531.75 279.912 531.75 281.272C531.75 282.328 532.406 283.032 533.75 283.368L535.078 283.704C535.99 283.928 536.31 284.296 536.31 284.936C536.31 285.768 535.606 286.28 534.406 286.28C533.318 286.28 532.646 285.72 532.646 284.824H531.59Z" fill="white"/>
<path d="M426.735 395.76C428.775 395.76 429.735 396.84 429.735 398.32C429.735 399.94 428.675 400.98 427.075 400.98C425.515 400.98 424.475 400.02 424.475 398.34H421.955C421.955 401.5 424.175 403.26 427.035 403.26C429.995 403.26 432.335 401.36 432.335 398.36C432.335 395.78 430.595 394.14 428.355 393.7L431.915 390.42V388.38H422.635V390.64H428.715L424.955 394.1V395.76H426.735Z" fill="white"/>
<path d="M435.666 403.24C436.546 403.24 437.286 402.52 437.286 401.66C437.286 400.78 436.546 400.06 435.666 400.06C434.786 400.06 434.046 400.78 434.046 401.66C434.046 402.52 434.786 403.24 435.666 403.24Z" fill="white"/>
<path d="M444.174 403.24C447.434 403.24 449.654 401.08 449.654 397.92C449.654 395.04 447.714 393.06 444.794 393.06C443.794 393.06 442.914 393.32 442.214 393.78L442.994 390.74H448.774V388.38H441.154L439.354 396.04L441.614 396.52C442.134 395.76 443.154 395.2 444.274 395.2C446.034 395.2 447.054 396.36 447.054 398.06C447.054 399.84 445.954 400.96 444.234 400.96C442.614 400.96 441.634 399.98 441.634 398.32H439.094C439.094 401.28 441.114 403.24 444.174 403.24Z" fill="white"/>
<path d="M458.586 391.94C458.586 389.7 456.986 388.1 454.766 388.1C452.546 388.1 450.946 389.7 450.946 391.94C450.946 394.2 452.546 395.78 454.766 395.78C456.986 395.78 458.586 394.2 458.586 391.94ZM466.606 388.4H464.166L453.066 403H455.506L466.606 388.4ZM456.646 391.94C456.646 393.1 455.886 393.9 454.766 393.9C453.666 393.9 452.906 393.1 452.906 391.94C452.906 390.78 453.646 389.98 454.766 389.98C455.886 389.98 456.646 390.78 456.646 391.94ZM468.746 399.42C468.746 397.18 467.166 395.58 464.946 395.58C462.706 395.58 461.126 397.18 461.126 399.42C461.126 401.66 462.706 403.26 464.946 403.26C467.166 403.26 468.746 401.66 468.746 399.42ZM466.806 399.42C466.806 400.58 466.046 401.38 464.946 401.38C463.826 401.38 463.066 400.58 463.066 399.42C463.066 398.26 463.826 397.46 464.946 397.46C466.046 397.46 466.806 398.26 466.806 399.42Z" fill="white"/>
<path d="M413.002 422.792C415.194 422.792 416.602 421.224 416.602 419.144C416.602 416.984 415.21 415.544 413.002 415.544H408.634V427H409.786V422.792H413.002ZM412.842 416.584C414.426 416.584 415.402 417.544 415.402 419.128C415.402 420.696 414.442 421.752 412.778 421.752H409.786V416.584H412.842Z" fill="white"/>
<path d="M422.27 419.16C421.998 419.096 421.79 419.08 421.55 419.08C420.462 419.08 419.646 419.624 419.342 420.456L419.262 419.256H418.222V427H419.326V422.584C419.326 421.112 420.238 420.152 421.662 420.152H422.27V419.16Z" fill="white"/>
<path d="M422.897 423.128C422.897 425.48 424.561 427.192 426.833 427.192C429.105 427.192 430.769 425.48 430.769 423.128C430.769 420.76 429.105 419.048 426.833 419.048C424.561 419.048 422.897 420.76 422.897 423.128ZM424.017 423.112C424.017 421.32 425.169 420.04 426.833 420.04C428.481 420.04 429.649 421.32 429.649 423.112C429.649 424.936 428.481 426.2 426.833 426.2C425.169 426.2 424.017 424.936 424.017 423.112Z" fill="white"/>
<path d="M431.991 423.144C431.991 425.576 433.479 427.192 435.671 427.192C437.431 427.192 438.807 426.152 439.175 424.568H438.055C437.751 425.56 436.823 426.2 435.671 426.2C434.103 426.2 433.079 424.968 433.079 423.128C433.079 421.224 434.183 420.024 435.751 420.024C436.823 420.024 437.751 420.616 438.039 421.688H439.143C438.839 420.088 437.527 419.048 435.735 419.048C433.479 419.048 431.991 420.712 431.991 423.144Z" fill="white"/>
<path d="M444.095 427.192C445.919 427.192 447.119 426.312 447.535 424.68H446.479C446.191 425.704 445.375 426.248 444.111 426.248C442.447 426.248 441.455 425.16 441.375 423.272H447.535V422.728C447.535 420.536 446.111 419.048 444.015 419.048C441.807 419.048 440.303 420.712 440.303 423.128C440.303 425.56 441.823 427.192 444.095 427.192ZM444.015 419.992C445.471 419.992 446.431 420.984 446.431 422.472H441.407C441.599 420.952 442.559 419.992 444.015 419.992Z" fill="white"/>
<path d="M448.645 424.824C448.645 426.264 449.733 427.192 451.477 427.192C453.237 427.192 454.421 426.28 454.421 424.888C454.421 423.768 453.813 423.144 452.469 422.808L451.141 422.472C450.293 422.264 449.877 421.848 449.877 421.256C449.877 420.424 450.485 419.96 451.573 419.96C452.613 419.96 453.237 420.488 453.269 421.384H454.341C454.293 419.944 453.237 419.048 451.605 419.048C449.941 419.048 448.805 419.912 448.805 421.272C448.805 422.328 449.461 423.032 450.805 423.368L452.133 423.704C453.045 423.928 453.365 424.296 453.365 424.936C453.365 425.768 452.661 426.28 451.461 426.28C450.373 426.28 449.701 425.72 449.701 424.824H448.645Z" fill="white"/>
<path d="M455.582 424.824C455.582 426.264 456.67 427.192 458.414 427.192C460.174 427.192 461.358 426.28 461.358 424.888C461.358 423.768 460.75 423.144 459.406 422.808L458.078 422.472C457.23 422.264 456.814 421.848 456.814 421.256C456.814 420.424 457.422 419.96 458.51 419.96C459.55 419.96 460.174 420.488 460.206 421.384H461.278C461.23 419.944 460.174 419.048 458.542 419.048C456.878 419.048 455.742 419.912 455.742 421.272C455.742 422.328 456.398 423.032 457.742 423.368L459.07 423.704C459.982 423.928 460.302 424.296 460.302 424.936C460.302 425.768 459.598 426.28 458.398 426.28C457.31 426.28 456.638 425.72 456.638 424.824H455.582Z" fill="white"/>
<path d="M463.72 417.128C464.168 417.128 464.552 416.76 464.552 416.312C464.552 415.864 464.168 415.48 463.72 415.48C463.272 415.48 462.904 415.864 462.904 416.312C462.904 416.76 463.272 417.128 463.72 417.128ZM463.176 427H464.28V419.256H463.176V427Z" fill="white"/>
<path d="M467.686 427V422.952C467.686 421.208 468.582 420.056 470.166 420.056C471.446 420.056 472.262 420.696 472.262 422.504V427H473.366V422.264C473.366 420.312 472.486 419.048 470.358 419.048C469.238 419.048 468.214 419.608 467.702 420.6L467.542 419.256H466.582V427H467.686Z" fill="white"/>
<path d="M475.038 422.904C475.038 425.016 476.382 426.76 478.59 426.76C479.918 426.76 480.99 426.12 481.518 425.032V426.872C481.518 428.488 480.462 429.56 478.878 429.56C477.486 429.56 476.526 428.824 476.286 427.576H475.182C475.486 429.448 476.878 430.568 478.862 430.568C481.134 430.568 482.606 429.064 482.606 426.76V419.256H481.646L481.534 420.808C481.038 419.672 480.014 419.048 478.67 419.048C476.398 419.048 475.038 420.792 475.038 422.904ZM476.142 422.888C476.142 421.32 477.102 420.024 478.766 420.024C480.462 420.024 481.422 421.24 481.422 422.888C481.422 424.552 480.43 425.768 478.75 425.768C477.118 425.768 476.142 424.472 476.142 422.888Z" fill="white"/>
<path d="M318.735 465.76C320.775 465.76 321.735 466.84 321.735 468.32C321.735 469.94 320.675 470.98 319.075 470.98C317.515 470.98 316.475 470.02 316.475 468.34H313.955C313.955 471.5 316.175 473.26 319.035 473.26C321.995 473.26 324.335 471.36 324.335 468.36C324.335 465.78 322.595 464.14 320.355 463.7L323.915 460.42V458.38H314.635V460.64H320.715L316.955 464.1V465.76H318.735Z" fill="white"/>
<path d="M327.666 473.24C328.546 473.24 329.286 472.52 329.286 471.66C329.286 470.78 328.546 470.06 327.666 470.06C326.786 470.06 326.046 470.78 326.046 471.66C326.046 472.52 326.786 473.24 327.666 473.24Z" fill="white"/>
<path d="M336.173 473.24C339.433 473.24 341.653 471.08 341.653 467.92C341.653 465.04 339.713 463.06 336.793 463.06C335.793 463.06 334.913 463.32 334.213 463.78L334.993 460.74H340.773V458.38H333.153L331.353 466.04L333.613 466.52C334.133 465.76 335.153 465.2 336.273 465.2C338.033 465.2 339.053 466.36 339.053 468.06C339.053 469.84 337.953 470.96 336.233 470.96C334.613 470.96 333.633 469.98 333.633 468.32H331.093C331.093 471.28 333.113 473.24 336.173 473.24Z" fill="white"/>
<path d="M350.586 461.94C350.586 459.7 348.986 458.1 346.766 458.1C344.546 458.1 342.946 459.7 342.946 461.94C342.946 464.2 344.546 465.78 346.766 465.78C348.986 465.78 350.586 464.2 350.586 461.94ZM358.606 458.4H356.166L345.066 473H347.506L358.606 458.4ZM348.646 461.94C348.646 463.1 347.886 463.9 346.766 463.9C345.666 463.9 344.906 463.1 344.906 461.94C344.906 460.78 345.646 459.98 346.766 459.98C347.886 459.98 348.646 460.78 348.646 461.94ZM360.746 469.42C360.746 467.18 359.166 465.58 356.946 465.58C354.706 465.58 353.126 467.18 353.126 469.42C353.126 471.66 354.706 473.26 356.946 473.26C359.166 473.26 360.746 471.66 360.746 469.42ZM358.806 469.42C358.806 470.58 358.046 471.38 356.946 471.38C355.826 471.38 355.066 470.58 355.066 469.42C355.066 468.26 355.826 467.46 356.946 467.46C358.046 467.46 358.806 468.26 358.806 469.42Z" fill="white"/>
<path d="M305.736 497.176C308.2 497.176 310.2 495.72 310.728 493.56H309.496C309 495.096 307.56 496.072 305.752 496.072C303.24 496.072 301.56 494.152 301.56 491.272C301.56 488.376 303.24 486.456 305.752 486.456C307.544 486.456 308.952 487.464 309.432 489.112H310.664C310.2 486.84 308.264 485.352 305.8 485.352C302.568 485.352 300.36 487.752 300.36 491.272C300.36 494.792 302.536 497.176 305.736 497.176Z" fill="white"/>
<path d="M313.024 487.128C313.472 487.128 313.856 486.76 313.856 486.312C313.856 485.864 313.472 485.48 313.024 485.48C312.576 485.48 312.208 485.864 312.208 486.312C312.208 486.76 312.576 487.128 313.024 487.128ZM312.48 497H313.584V489.256H312.48V497Z" fill="white"/>
<path d="M319.934 489.16C319.662 489.096 319.454 489.08 319.214 489.08C318.126 489.08 317.31 489.624 317.006 490.456L316.926 489.256H315.886V497H316.99V492.584C316.99 491.112 317.902 490.152 319.326 490.152H319.934V489.16Z" fill="white"/>
<path d="M320.561 493.144C320.561 495.576 322.049 497.192 324.241 497.192C326.001 497.192 327.377 496.152 327.745 494.568H326.625C326.321 495.56 325.393 496.2 324.241 496.2C322.673 496.2 321.649 494.968 321.649 493.128C321.649 491.224 322.753 490.024 324.321 490.024C325.393 490.024 326.321 490.616 326.609 491.688H327.713C327.409 490.088 326.097 489.048 324.305 489.048C322.049 489.048 320.561 490.712 320.561 493.144Z" fill="white"/>
<path d="M334.858 489.256V493.368C334.858 495.208 333.978 496.2 332.49 496.2C331.258 496.2 330.442 495.544 330.442 493.704V489.24H329.322V494.056C329.322 495.944 330.314 497.192 332.138 497.192C333.354 497.192 334.426 496.584 334.858 495.688L335.002 497H335.962V489.256H334.858Z" fill="white"/>
<path d="M339.413 497V485.336H338.309V497H339.413Z" fill="white"/>
<path d="M343.985 497.192C345.297 497.192 346.353 496.616 346.833 495.64L346.977 497H347.905V491.992C347.905 489.944 346.593 489.048 344.801 489.048C342.897 489.048 341.617 490.056 341.617 491.624H342.625C342.625 490.584 343.425 489.976 344.769 489.976C345.905 489.976 346.817 490.456 346.817 491.976V492.232L344.257 492.44C342.449 492.584 341.361 493.48 341.361 494.904C341.361 496.264 342.337 497.192 343.985 497.192ZM344.241 496.296C343.185 496.296 342.481 495.816 342.481 494.872C342.481 494.008 343.073 493.368 344.529 493.24L346.817 493.064V493.48C346.817 495.16 345.873 496.296 344.241 496.296Z" fill="white"/>
<path d="M351.756 497V490.184H353.308V489.256H351.756V486.808H350.668V489.256H349.116V490.184H350.668V497H351.756Z" fill="white"/>
<path d="M355.29 487.128C355.738 487.128 356.122 486.76 356.122 486.312C356.122 485.864 355.738 485.48 355.29 485.48C354.842 485.48 354.474 485.864 354.474 486.312C354.474 486.76 354.842 487.128 355.29 487.128ZM354.746 497H355.85V489.256H354.746V497Z" fill="white"/>
<path d="M359.256 497V492.952C359.256 491.208 360.152 490.056 361.736 490.056C363.016 490.056 363.832 490.696 363.832 492.504V497H364.936V492.264C364.936 490.312 364.056 489.048 361.928 489.048C360.808 489.048 359.784 489.608 359.272 490.6L359.112 489.256H358.152V497H359.256Z" fill="white"/>
<path d="M366.608 492.904C366.608 495.016 367.952 496.76 370.16 496.76C371.488 496.76 372.56 496.12 373.088 495.032V496.872C373.088 498.488 372.032 499.56 370.448 499.56C369.056 499.56 368.096 498.824 367.856 497.576H366.752C367.056 499.448 368.448 500.568 370.432 500.568C372.704 500.568 374.176 499.064 374.176 496.76V489.256H373.216L373.104 490.808C372.608 489.672 371.584 489.048 370.24 489.048C367.968 489.048 366.608 490.792 366.608 492.904ZM367.712 492.888C367.712 491.32 368.672 490.024 370.336 490.024C372.032 490.024 372.992 491.24 372.992 492.888C372.992 494.552 372 495.768 370.32 495.768C368.688 495.768 367.712 494.472 367.712 492.888Z" fill="white"/>
<path d="M101.735 419.76C103.775 419.76 104.735 420.84 104.735 422.32C104.735 423.94 103.675 424.98 102.075 424.98C100.515 424.98 99.4748 424.02 99.4748 422.34H96.9548C96.9548 425.5 99.1748 427.26 102.035 427.26C104.995 427.26 107.335 425.36 107.335 422.36C107.335 419.78 105.595 418.14 103.355 417.7L106.915 414.42V412.38H97.6348V414.64H103.715L99.9548 418.1V419.76H101.735Z" fill="white"/>
<path d="M110.666 427.24C111.546 427.24 112.286 426.52 112.286 425.66C112.286 424.78 111.546 424.06 110.666 424.06C109.786 424.06 109.046 424.78 109.046 425.66C109.046 426.52 109.786 427.24 110.666 427.24Z" fill="white"/>
<path d="M119.174 427.24C122.434 427.24 124.654 425.08 124.654 421.92C124.654 419.04 122.714 417.06 119.794 417.06C118.794 417.06 117.914 417.32 117.214 417.78L117.994 414.74H123.774V412.38H116.154L114.354 420.04L116.614 420.52C117.134 419.76 118.154 419.2 119.274 419.2C121.034 419.2 122.054 420.36 122.054 422.06C122.054 423.84 120.954 424.96 119.234 424.96C117.614 424.96 116.634 423.98 116.634 422.32H114.094C114.094 425.28 116.114 427.24 119.174 427.24Z" fill="white"/>
<path d="M133.586 415.94C133.586 413.7 131.986 412.1 129.766 412.1C127.546 412.1 125.946 413.7 125.946 415.94C125.946 418.2 127.546 419.78 129.766 419.78C131.986 419.78 133.586 418.2 133.586 415.94ZM141.606 412.4H139.166L128.066 427H130.506L141.606 412.4ZM131.646 415.94C131.646 417.1 130.886 417.9 129.766 417.9C128.666 417.9 127.906 417.1 127.906 415.94C127.906 414.78 128.646 413.98 129.766 413.98C130.886 413.98 131.646 414.78 131.646 415.94ZM143.746 423.42C143.746 421.18 142.166 419.58 139.946 419.58C137.706 419.58 136.126 421.18 136.126 423.42C136.126 425.66 137.706 427.26 139.946 427.26C142.166 427.26 143.746 425.66 143.746 423.42ZM141.806 423.42C141.806 424.58 141.046 425.38 139.946 425.38C138.826 425.38 138.066 424.58 138.066 423.42C138.066 422.26 138.826 421.46 139.946 421.46C141.046 421.46 141.806 422.26 141.806 423.42Z" fill="white"/>
<path d="M89.3097 451V446.248H92.6537L94.9897 451H96.2697L93.8217 446.056C95.2937 445.656 96.1577 444.504 96.1577 442.856C96.1577 440.824 94.7497 439.544 92.4297 439.544H88.1577V451H89.3097ZM89.3097 440.584H92.4297C93.9977 440.584 94.9737 441.4 94.9737 442.888C94.9737 444.344 94.0457 445.208 92.4617 445.208H89.3097V440.584Z" fill="white"/>
<path d="M100.838 451.192C102.662 451.192 103.862 450.312 104.278 448.68H103.222C102.934 449.704 102.118 450.248 100.854 450.248C99.1896 450.248 98.1976 449.16 98.1176 447.272H104.278V446.728C104.278 444.536 102.854 443.048 100.758 443.048C98.5496 443.048 97.0456 444.712 97.0456 447.128C97.0456 449.56 98.5656 451.192 100.838 451.192ZM100.758 443.992C102.214 443.992 103.174 444.984 103.174 446.472H98.1496C98.3416 444.952 99.3016 443.992 100.758 443.992Z" fill="white"/>
<path d="M108 451H109.104L112.32 443.256H111.184L109.152 448.248C108.928 448.808 108.72 449.32 108.576 449.848C108.432 449.336 108.224 448.808 108.016 448.248L106.016 443.256H104.832L108 451Z" fill="white"/>
<path d="M112.733 447.128C112.733 449.48 114.397 451.192 116.669 451.192C118.941 451.192 120.605 449.48 120.605 447.128C120.605 444.76 118.941 443.048 116.669 443.048C114.397 443.048 112.733 444.76 112.733 447.128ZM113.853 447.112C113.853 445.32 115.005 444.04 116.669 444.04C118.317 444.04 119.485 445.32 119.485 447.112C119.485 448.936 118.317 450.2 116.669 450.2C115.005 450.2 113.853 448.936 113.853 447.112Z" fill="white"/>
<path d="M123.523 451V439.336H122.419V451H123.523Z" fill="white"/>
<path d="M128.031 451H129.135L132.351 443.256H131.215L129.183 448.248C128.959 448.808 128.751 449.32 128.607 449.848C128.463 449.336 128.255 448.808 128.047 448.248L126.047 443.256H124.863L128.031 451Z" fill="white"/>
<path d="M134.196 441.128C134.644 441.128 135.028 440.76 135.028 440.312C135.028 439.864 134.644 439.48 134.196 439.48C133.748 439.48 133.38 439.864 133.38 440.312C133.38 440.76 133.748 441.128 134.196 441.128ZM133.652 451H134.756V443.256H133.652V451Z" fill="white"/>
<path d="M138.162 451V446.952C138.162 445.208 139.058 444.056 140.642 444.056C141.922 444.056 142.738 444.696 142.738 446.504V451H143.842V446.264C143.842 444.312 142.962 443.048 140.834 443.048C139.714 443.048 138.69 443.608 138.178 444.6L138.018 443.256H137.058V451H138.162Z" fill="white"/>
<path d="M145.515 446.904C145.515 449.016 146.859 450.76 149.067 450.76C150.395 450.76 151.467 450.12 151.995 449.032V450.872C151.995 452.488 150.939 453.56 149.355 453.56C147.963 453.56 147.003 452.824 146.763 451.576H145.659C145.963 453.448 147.355 454.568 149.339 454.568C151.611 454.568 153.083 453.064 153.083 450.76V443.256H152.123L152.011 444.808C151.515 443.672 150.491 443.048 149.147 443.048C146.875 443.048 145.515 444.792 145.515 446.904ZM146.619 446.888C146.619 445.32 147.579 444.024 149.243 444.024C150.939 444.024 151.899 445.24 151.899 446.888C151.899 448.552 150.907 449.768 149.227 449.768C147.595 449.768 146.619 448.472 146.619 446.888Z" fill="white"/>
<path d="M15.7348 278.76C17.7748 278.76 18.7348 279.84 18.7348 281.32C18.7348 282.94 17.6748 283.98 16.0748 283.98C14.5148 283.98 13.4748 283.02 13.4748 281.34H10.9548C10.9548 284.5 13.1748 286.26 16.0348 286.26C18.9948 286.26 21.3348 284.36 21.3348 281.36C21.3348 278.78 19.5948 277.14 17.3548 276.7L20.9148 273.42V271.38H11.6348V273.64H17.7148L13.9548 277.1V278.76H15.7348Z" fill="white"/>
<path d="M24.6657 286.24C25.5457 286.24 26.2857 285.52 26.2857 284.66C26.2857 283.78 25.5457 283.06 24.6657 283.06C23.7857 283.06 23.0457 283.78 23.0457 284.66C23.0457 285.52 23.7857 286.24 24.6657 286.24Z" fill="white"/>
<path d="M33.1735 286.24C36.4335 286.24 38.6535 284.08 38.6535 280.92C38.6535 278.04 36.7135 276.06 33.7935 276.06C32.7935 276.06 31.9135 276.32 31.2135 276.78L31.9935 273.74H37.7735V271.38H30.1535L28.3535 279.04L30.6135 279.52C31.1335 278.76 32.1535 278.2 33.2735 278.2C35.0335 278.2 36.0535 279.36 36.0535 281.06C36.0535 282.84 34.9535 283.96 33.2335 283.96C31.6135 283.96 30.6335 282.98 30.6335 281.32H28.0935C28.0935 284.28 30.1135 286.24 33.1735 286.24Z" fill="white"/>
<path d="M47.5857 274.94C47.5857 272.7 45.9857 271.1 43.7657 271.1C41.5457 271.1 39.9457 272.7 39.9457 274.94C39.9457 277.2 41.5457 278.78 43.7657 278.78C45.9857 278.78 47.5857 277.2 47.5857 274.94ZM55.6057 271.4H53.1657L42.0657 286H44.5057L55.6057 271.4ZM45.6457 274.94C45.6457 276.1 44.8857 276.9 43.7657 276.9C42.6657 276.9 41.9057 276.1 41.9057 274.94C41.9057 273.78 42.6457 272.98 43.7657 272.98C44.8857 272.98 45.6457 273.78 45.6457 274.94ZM57.7457 282.42C57.7457 280.18 56.1657 278.58 53.9457 278.58C51.7057 278.58 50.1257 280.18 50.1257 282.42C50.1257 284.66 51.7057 286.26 53.9457 286.26C56.1657 286.26 57.7457 284.66 57.7457 282.42ZM55.8057 282.42C55.8057 283.58 55.0457 284.38 53.9457 284.38C52.8257 284.38 52.0657 283.58 52.0657 282.42C52.0657 281.26 52.8257 280.46 53.9457 280.46C55.0457 280.46 55.8057 281.26 55.8057 282.42Z" fill="white"/>
<path d="M4.8304 305.792C7.0224 305.792 8.4304 304.224 8.4304 302.144C8.4304 299.984 7.0384 298.544 4.8304 298.544H0.462402V310H1.6144V305.792H4.8304ZM4.6704 299.584C6.2544 299.584 7.2304 300.544 7.2304 302.128C7.2304 303.696 6.2704 304.752 4.6064 304.752H1.6144V299.584H4.6704Z" fill="white"/>
<path d="M9.60253 301.52C9.60253 303.088 10.5465 304.112 12.3385 304.544L14.2745 305.024C15.5065 305.312 16.0825 305.984 16.0825 307.008C16.0825 308.32 15.0105 309.136 13.3305 309.136C11.7625 309.136 10.7065 308.352 10.6425 307.152H9.45853C9.60253 309.024 11.1065 310.192 13.3305 310.192C15.6985 310.192 17.2345 308.928 17.2345 306.944C17.2345 305.392 16.3065 304.368 14.5145 303.936L12.5465 303.456C11.3465 303.152 10.7545 302.512 10.7545 301.504C10.7545 300.208 11.8105 299.376 13.4265 299.376C14.8665 299.376 15.7465 300.112 15.8745 301.408H17.0425C16.8665 299.488 15.5065 298.336 13.4425 298.336C11.1385 298.336 9.60253 299.6 9.60253 301.52Z" fill="white"/>
<path d="M23.0557 301.52C23.0557 303.088 23.9997 304.112 25.7917 304.544L27.7277 305.024C28.9597 305.312 29.5357 305.984 29.5357 307.008C29.5357 308.32 28.4637 309.136 26.7837 309.136C25.2157 309.136 24.1597 308.352 24.0957 307.152H22.9117C23.0557 309.024 24.5597 310.192 26.7837 310.192C29.1517 310.192 30.6877 308.928 30.6877 306.944C30.6877 305.392 29.7597 304.368 27.9677 303.936L25.9997 303.456C24.7997 303.152 24.2077 302.512 24.2077 301.504C24.2077 300.208 25.2637 299.376 26.8797 299.376C28.3197 299.376 29.1997 300.112 29.3277 301.408H30.4957C30.3197 299.488 28.9597 298.336 26.8957 298.336C24.5917 298.336 23.0557 299.6 23.0557 301.52Z" fill="white"/>
<path d="M37.9593 302.256V306.368C37.9593 308.208 37.0793 309.2 35.5913 309.2C34.3593 309.2 33.5433 308.544 33.5433 306.704V302.24H32.4233V307.056C32.4233 308.944 33.4153 310.192 35.2393 310.192C36.4553 310.192 37.5273 309.584 37.9593 308.688L38.1033 310H39.0633V302.256H37.9593Z" fill="white"/>
<path d="M41.363 313.376H42.467V308.512C43.011 309.632 44.051 310.192 45.363 310.192C47.651 310.192 48.947 308.432 48.947 306.096C48.947 303.76 47.603 302.048 45.363 302.048C44.067 302.048 42.979 302.624 42.435 303.824L42.323 302.256H41.363V313.376ZM42.483 306.128C42.483 304.336 43.475 303.056 45.171 303.056C46.851 303.056 47.827 304.336 47.827 306.128C47.827 307.904 46.851 309.2 45.171 309.2C43.475 309.2 42.483 307.904 42.483 306.128Z" fill="white"/>
<path d="M50.7068 313.376H51.8108V308.512C52.3548 309.632 53.3948 310.192 54.7068 310.192C56.9948 310.192 58.2908 308.432 58.2908 306.096C58.2908 303.76 56.9468 302.048 54.7068 302.048C53.4108 302.048 52.3228 302.624 51.7788 303.824L51.6668 302.256H50.7068V313.376ZM51.8268 306.128C51.8268 304.336 52.8188 303.056 54.5148 303.056C56.1948 303.056 57.1708 304.336 57.1708 306.128C57.1708 307.904 56.1948 309.2 54.5148 309.2C52.8188 309.2 51.8268 307.904 51.8268 306.128Z" fill="white"/>
<path d="M61.2025 310V298.336H60.0985V310H61.2025Z" fill="white"/>
<path d="M62.7665 313.376C63.1185 313.456 63.4705 313.488 63.9345 313.488C65.0385 313.488 65.7905 312.992 66.2385 311.776L69.7905 302.256H68.6545L66.2065 309.008L63.7105 302.256H62.5425L65.6785 310.464L65.3425 311.376C64.9585 312.416 64.2865 312.464 63.6145 312.464H62.7665V313.376Z" fill="white"/>
<path d="M85.7347 55.7601C87.7747 55.7601 88.7347 56.8401 88.7347 58.3201C88.7347 59.9401 87.6747 60.9801 86.0747 60.9801C84.5147 60.9801 83.4747 60.0201 83.4747 58.3401H80.9547C80.9547 61.5001 83.1747 63.2601 86.0347 63.2601C88.9947 63.2601 91.3347 61.3601 91.3347 58.3601C91.3347 55.7801 89.5947 54.1401 87.3547 53.7001L90.9147 50.4201V48.3801H81.6347V50.6401H87.7147L83.9547 54.1001V55.7601H85.7347Z" fill="white"/>
<path d="M94.6656 63.2401C95.5456 63.2401 96.2856 62.5201 96.2856 61.6601C96.2856 60.7801 95.5456 60.0601 94.6656 60.0601C93.7856 60.0601 93.0456 60.7801 93.0456 61.6601C93.0456 62.5201 93.7856 63.2401 94.6656 63.2401Z" fill="white"/>
<path d="M103.173 63.2401C106.433 63.2401 108.653 61.0801 108.653 57.9201C108.653 55.0401 106.713 53.0601 103.793 53.0601C102.793 53.0601 101.913 53.3201 101.213 53.7801L101.993 50.7401H107.773V48.3801H100.153L98.3534 56.0401L100.613 56.5201C101.133 55.7601 102.153 55.2001 103.273 55.2001C105.033 55.2001 106.053 56.3601 106.053 58.0601C106.053 59.8401 104.953 60.9601 103.233 60.9601C101.613 60.9601 100.633 59.9801 100.633 58.3201H98.0934C98.0934 61.2801 100.113 63.2401 103.173 63.2401Z" fill="white"/>
<path d="M117.586 51.9401C117.586 49.7001 115.986 48.1001 113.766 48.1001C111.546 48.1001 109.946 49.7001 109.946 51.9401C109.946 54.2001 111.546 55.7801 113.766 55.7801C115.986 55.7801 117.586 54.2001 117.586 51.9401ZM125.606 48.4001H123.166L112.066 63.0001H114.506L125.606 48.4001ZM115.646 51.9401C115.646 53.1001 114.886 53.9001 113.766 53.9001C112.666 53.9001 111.906 53.1001 111.906 51.9401C111.906 50.7801 112.646 49.9801 113.766 49.9801C114.886 49.9801 115.646 50.7801 115.646 51.9401ZM127.746 59.4201C127.746 57.1801 126.166 55.5801 123.946 55.5801C121.706 55.5801 120.126 57.1801 120.126 59.4201C120.126 61.6601 121.706 63.2601 123.946 63.2601C126.166 63.2601 127.746 61.6601 127.746 59.4201ZM125.806 59.4201C125.806 60.5801 125.046 61.3801 123.946 61.3801C122.826 61.3801 122.066 60.5801 122.066 59.4201C122.066 58.2601 122.826 57.4601 123.946 57.4601C125.046 57.4601 125.806 58.2601 125.806 59.4201Z" fill="white"/>
<path d="M69.9546 87.1761C72.4186 87.1761 74.4186 85.7201 74.9466 83.5601H73.7146C73.2186 85.0961 71.7786 86.0721 69.9706 86.0721C67.4586 86.0721 65.7786 84.1521 65.7786 81.2721C65.7786 78.3761 67.4586 76.4561 69.9706 76.4561C71.7626 76.4561 73.1706 77.4641 73.6506 79.1121H74.8826C74.4186 76.8401 72.4826 75.3521 70.0186 75.3521C66.7866 75.3521 64.5786 77.7521 64.5786 81.2721C64.5786 84.7921 66.7546 87.1761 69.9546 87.1761Z" fill="white"/>
<path d="M76.1549 83.1281C76.1549 85.4801 77.8189 87.1921 80.0909 87.1921C82.3629 87.1921 84.0269 85.4801 84.0269 83.1281C84.0269 80.7601 82.3629 79.0481 80.0909 79.0481C77.8189 79.0481 76.1549 80.7601 76.1549 83.1281ZM77.2749 83.1121C77.2749 81.3201 78.4269 80.0401 80.0909 80.0401C81.7389 80.0401 82.9069 81.3201 82.9069 83.1121C82.9069 84.9361 81.7389 86.2001 80.0909 86.2001C78.4269 86.2001 77.2749 84.9361 77.2749 83.1121Z" fill="white"/>
<path d="M86.8966 87.0001V82.2001C86.8966 81.0161 87.6806 80.0561 88.9766 80.0561C90.1446 80.0561 90.8966 80.8241 90.8966 82.1361V87.0001H91.9846V82.2161C91.9846 81.0161 92.7526 80.0401 94.0486 80.0401C95.2326 80.0401 95.9686 80.8241 95.9686 82.1521V87.0001H97.0406V81.9281C97.0406 80.1361 95.9366 79.0481 94.2566 79.0481C93.0086 79.0481 92.0646 79.6881 91.7126 80.6961C91.3446 79.6881 90.4326 79.0481 89.2166 79.0481C88.1286 79.0481 87.2646 79.5441 86.8806 80.3601L86.7526 79.2561H85.7926V87.0001H86.8966Z" fill="white"/>
<path d="M100.365 87.0001V82.2001C100.365 81.0161 101.149 80.0561 102.445 80.0561C103.613 80.0561 104.365 80.8241 104.365 82.1361V87.0001H105.453V82.2161C105.453 81.0161 106.221 80.0401 107.517 80.0401C108.701 80.0401 109.437 80.8241 109.437 82.1521V87.0001H110.509V81.9281C110.509 80.1361 109.405 79.0481 107.725 79.0481C106.477 79.0481 105.533 79.6881 105.181 80.6961C104.813 79.6881 103.901 79.0481 102.685 79.0481C101.597 79.0481 100.733 79.5441 100.349 80.3601L100.221 79.2561H99.2614V87.0001H100.365Z" fill="white"/>
<path d="M118.17 79.2561V83.3681C118.17 85.2081 117.29 86.2001 115.802 86.2001C114.57 86.2001 113.754 85.5441 113.754 83.7041V79.2401H112.634V84.0561C112.634 85.9441 113.626 87.1921 115.45 87.1921C116.666 87.1921 117.738 86.5841 118.17 85.6881L118.314 87.0001H119.274V79.2561H118.17Z" fill="white"/>
<path d="M122.678 87.0001V82.9521C122.678 81.2081 123.574 80.0561 125.158 80.0561C126.438 80.0561 127.254 80.6961 127.254 82.5041V87.0001H128.358V82.2641C128.358 80.3121 127.478 79.0481 125.35 79.0481C124.23 79.0481 123.206 79.6081 122.694 80.6001L122.534 79.2561H121.574V87.0001H122.678Z" fill="white"/>
<path d="M131.102 77.1281C131.55 77.1281 131.934 76.7601 131.934 76.3121C131.934 75.8641 131.55 75.4801 131.102 75.4801C130.654 75.4801 130.286 75.8641 130.286 76.3121C130.286 76.7601 130.654 77.1281 131.102 77.1281ZM130.558 87.0001H131.662V79.2561H130.558V87.0001Z" fill="white"/>
<path d="M135.74 87.0001V80.1841H137.292V79.2561H135.74V76.8081H134.652V79.2561H133.1V80.1841H134.652V87.0001H135.74Z" fill="white"/>
<path d="M137.946 90.3761C138.298 90.4561 138.65 90.4881 139.114 90.4881C140.218 90.4881 140.97 89.9921 141.418 88.7761L144.97 79.2561H143.834L141.386 86.0081L138.89 79.2561H137.722L140.858 87.4641L140.522 88.3761C140.138 89.4161 139.466 89.4641 138.794 89.4641H137.946V90.3761Z" fill="white"/>
<path d="M269.915 201.207V219.773C275.136 219.856 279.861 222.011 283.342 225.409L296.853 212.728C289.973 205.682 280.441 201.289 269.915 201.207Z" fill="#727E84"/>
<path d="M269.915 181.811V200.378C289.144 200.543 305.058 214.717 308.125 233.035L326.443 230.465C322.133 203.03 298.427 182.06 269.915 181.811Z" fill="#8F8FB3"/>
<path d="M346.501 239.5C346.501 197.145 312.187 162.664 269.915 162.499V181.065C301.992 181.314 328.018 207.423 328.018 239.583C328.018 262.294 315.005 282.021 296.024 291.718L304.229 308.378C329.261 295.531 346.501 269.505 346.501 239.5Z" fill="#606380"/>
<path d="M269.915 143.103V161.67C312.684 161.918 347.33 196.731 347.33 239.5C347.33 282.435 312.435 317.33 269.5 317.33C232.699 317.33 201.782 291.635 193.659 257.321L175.673 261.548C185.702 304.068 223.996 335.814 269.5 335.814C322.63 335.814 365.897 292.547 365.897 239.417C365.897 186.453 322.879 143.352 269.915 143.103Z" fill="#6E7DA3"/>
<path d="M269.914 123.708V142.275C323.376 142.523 366.726 186.038 366.726 239.5C366.726 293.128 323.127 336.726 269.5 336.726C215.873 336.726 172.274 293.128 172.274 239.5C172.274 224.249 175.839 209.744 182.138 196.897L165.478 188.774C158.018 204.108 153.791 221.348 153.791 239.5C153.791 303.323 205.76 355.292 269.583 355.292C333.405 355.292 385.375 303.323 385.375 239.5C385.292 175.761 333.571 123.957 269.914 123.708Z" fill="#58516B"/>
<path d="M365.068 143.932C339.622 118.486 305.887 104.478 269.915 104.396V122.962C333.986 123.128 386.121 175.346 386.121 239.5C386.121 303.82 333.82 356.121 269.5 356.121C205.18 356.121 152.879 303.737 152.879 239.5C152.879 203.362 169.374 171.119 195.234 149.651L183.381 135.312C180.149 138.047 176.999 140.865 173.932 143.932C148.403 169.461 134.396 203.362 134.396 239.5C134.396 275.639 148.403 309.539 173.932 335.068C199.461 360.597 233.362 374.605 269.5 374.605C305.639 374.605 339.539 360.597 365.068 335.068C390.597 309.539 404.605 275.639 404.605 239.5C404.605 203.362 390.597 169.461 365.068 143.932Z" fill="#8EA7FF"/>
<g opacity="0.25">
<path d="M283.922 225.99C287.238 229.554 289.31 234.278 289.31 239.5C289.31 250.441 280.441 259.31 269.5 259.31C258.559 259.31 249.69 250.441 249.69 239.5C249.69 228.725 258.31 219.939 269.086 219.773V201.207C248.115 201.455 231.207 218.53 231.207 239.5C231.207 260.636 248.364 277.793 269.5 277.793C290.636 277.793 307.793 260.636 307.793 239.5C307.793 229.388 303.815 220.105 297.35 213.308L283.922 225.99Z" fill="#C1C1C1"/>
<path d="M308.208 233.864C308.457 235.687 308.622 237.593 308.622 239.5C308.622 261.05 291.051 278.622 269.5 278.622C247.95 278.622 230.378 261.05 230.378 239.5C230.378 218.032 247.701 200.626 269.086 200.378V181.811C237.506 182.06 211.811 207.837 211.811 239.5C211.811 271.328 237.672 297.189 269.5 297.189C301.328 297.189 327.189 271.328 327.189 239.5C327.189 236.682 326.94 233.947 326.609 231.294L308.208 233.864Z" fill="#C1C1C1"/>
<path d="M269.5 298.018C237.257 298.018 210.982 271.743 210.982 239.5C210.982 207.34 237.009 181.231 269.086 180.982V162.416C226.814 162.664 192.499 197.145 192.499 239.417C192.499 281.855 227.062 316.418 269.5 316.418C281.684 316.418 293.206 313.6 303.483 308.544L295.278 291.884C287.486 295.863 278.701 298.018 269.5 298.018Z" fill="#C1C1C1"/>
<path d="M191.587 239.5C191.587 196.731 226.316 161.836 269.003 161.67V143.103C216.121 143.352 173.103 186.453 173.103 239.5C173.103 246.794 173.932 253.922 175.507 260.802L193.576 256.492C192.25 251.021 191.587 245.302 191.587 239.5Z" fill="#C1C1C1"/>
<path d="M269.086 142.275V123.708C223.913 123.874 184.707 150.066 165.809 188.028L182.469 196.151C198.384 164.322 231.207 142.44 269.086 142.275Z" fill="#C1C1C1"/>
<path d="M269.086 122.879V104.396C237.672 104.478 207.999 115.171 184.044 134.815L195.897 149.154C215.873 132.825 241.319 122.962 269.086 122.879Z" fill="#C1C1C1"/>
<path d="M269.086 103.567V85C241.402 85.0829 214.795 92.3769 191.504 106.053L200.953 122.05C221.426 110.032 244.717 103.567 269.086 103.567Z" fill="#C1C1C1"/>
</g>
<path d="M378.744 130.256C349.734 101.163 311.026 85.0829 269.914 85V103.567C306.136 103.649 340.119 117.823 365.648 143.352C391.343 169.047 405.433 203.196 405.433 239.5C405.433 275.804 391.26 309.953 365.648 335.648C340.036 361.343 305.804 375.433 269.5 375.433C233.196 375.433 199.047 361.26 173.352 335.648C147.657 310.036 133.567 275.804 133.567 239.5C133.567 203.196 147.74 169.047 173.352 143.352C181.558 135.146 190.592 128.184 200.207 122.465L190.841 106.468C179.817 113.016 169.539 120.973 160.256 130.256C131.08 159.349 115 198.223 115 239.5C115 280.777 131.08 319.568 160.256 348.744C189.432 377.92 228.223 394 269.5 394C310.777 394 349.568 377.92 378.744 348.744C407.92 319.568 424 280.777 424 239.5C424 198.223 407.92 159.349 378.744 130.256Z" fill="#DCB3EF"/>
<defs>
<filter id="filter0_d_376_182" x="2" y="0" width="536" height="583" filterUnits="userSpaceOnUse" color-interpolation-filters="sRGB">
<feFlood flood-opacity="0" result="BackgroundImageFix"/>
<feColorMatrix in="SourceAlpha" type="matrix" values="0 0 0 0 0 0 0 0 0 0 0 0 0 0 0 0 0 0 127 0" result="hardAlpha"/>
<feOffset dy="76"/>
<feGaussianBlur stdDeviation="14.5"/>
<feComposite in2="hardAlpha" operator="out"/>
<feColorMatrix type="matrix" values="0 0 0 0 0 0 0 0 0 0 0 0 0 0 0 0 0 0 0.12 0"/>
<feBlend mode="normal" in2="BackgroundImageFix" result="effect1_dropShadow_376_182"/>
<feBlend mode="normal" in="SourceGraphic" in2="effect1_dropShadow_376_182" result="shape"/>
</filter>
</defs>
</svg>
