<svg width="60" height="66" viewBox="0 0 60 66" fill="none" xmlns="http://www.w3.org/2000/svg">
<g clip-path="url(#clip0_381_470)">
<path d="M43.3311 37.432L47.6891 41.791L56.2791 33.201" stroke="#5D5FEF" stroke-width="1.5"/>
<path d="M58.5001 36.6901C59.0765 39.0646 58.8194 41.565 57.7719 43.7725C56.7244 45.9801 54.9501 47.7606 52.7462 48.8158C50.5424 49.8711 48.0429 50.137 45.6664 49.5689C43.2899 49.0009 41.1807 47.6334 39.6923 45.6957C38.2038 43.7579 37.4265 41.3675 37.4905 38.9249C37.5544 36.4823 38.4559 34.1358 40.0437 32.2786C41.6315 30.4214 43.8094 29.1662 46.2123 28.7234C48.6153 28.2805 51.0975 28.6769 53.2431 29.8461" stroke="#5D5FEF" stroke-width="1.5"/>
<path d="M48.145 28.34V3.25C48.145 2.58696 47.8816 1.95107 47.4128 1.48223C46.9439 1.01339 46.308 0.75 45.645 0.75H14.467L0.75 14.467V62.143C0.75 62.806 1.01339 63.4419 1.48223 63.9108C1.95107 64.3796 2.58696 64.643 3.25 64.643H45.65C46.313 64.643 46.9489 64.3796 47.4178 63.9108C47.8866 63.4419 48.15 62.806 48.15 62.143V49.877" stroke="#5D5FEF" stroke-width="1.5" stroke-linecap="round"/>
<path d="M15.014 0.75V12.84C15.014 13.503 14.7506 14.1389 14.2818 14.6078C13.8129 15.0766 13.177 15.34 12.514 15.34H0.75" stroke="#5D5FEF" stroke-width="1.5" stroke-linecap="round"/>
<path d="M20.6509 12.5909H37.6299" stroke="#5D5FEF" stroke-width="1.5"/>
<path d="M18.9509 22.889H23.5029" stroke="#5D5FEF" stroke-width="1.5"/>
<path d="M26.1279 22.889H37.9539" stroke="#5D5FEF" stroke-width="1.5"/>
<path d="M9.37695 22.862L11.213 24.698L14.832 21.08" stroke="#5D5FEF" stroke-width="1.5"/>
<path d="M32.041 33.178H37.63" stroke="#5D5FEF" stroke-width="1.5"/>
<path d="M18.9509 33.178H29.1399" stroke="#5D5FEF" stroke-width="1.5"/>
<path d="M9.37695 33.151L11.213 34.987L14.832 31.368" stroke="#5D5FEF" stroke-width="1.5"/>
<path d="M18.9509 43.4659H37.6299" stroke="#5D5FEF" stroke-width="1.5"/>
<path d="M9.37695 43.439L11.213 45.275L14.832 41.657" stroke="#5D5FEF" stroke-width="1.5"/>
<path d="M18.9509 53.755H22.3559" stroke="#5D5FEF" stroke-width="1.5"/>
<path d="M24.9871 53.755H31.2931" stroke="#5D5FEF" stroke-width="1.5"/>
<path d="M33.2791 53.755H37.6301" stroke="#5D5FEF" stroke-width="1.5"/>
<path d="M9.37695 53.728L11.213 55.564L14.832 51.946" stroke="#5D5FEF" stroke-width="1.5"/>
</g>
<defs>
<clipPath id="clip0_381_470">
<rect width="59.549" height="65.393" fill="white"/>
</clipPath>
</defs>
</svg>
