<svg width="67" height="66" viewBox="0 0 67 66" fill="none" xmlns="http://www.w3.org/2000/svg">
<g clip-path="url(#clip0_382_565)">
<path d="M33.135 0.633301C37.88 0.633301 41.7331 3.05141 41.7331 6.02866C41.7331 9.0059 37.88 11.424 33.135 11.424C28.39 11.424 24.5369 9.00674 24.5369 6.02866C24.5369 3.05057 28.3891 0.633301 33.135 0.633301Z" stroke="#5D5FEF" strokeWidth="1.5" strokeMiterlimit="1.5" strokeLinecap="square"/>
<path d="M41.7331 6.02881V8.17158C41.7331 11.1497 37.88 13.5669 33.135 13.5669C28.39 13.5669 24.5369 11.1488 24.5369 8.17158V6.02881" stroke="#5D5FEF" strokeWidth="1.5" strokeMiterlimit="1.5" strokeLinecap="round"/>
<path d="M41.7331 8.13574V10.2785C41.7331 13.2566 37.88 15.6747 33.135 15.6747C28.39 15.6747 24.5369 13.26 24.5369 10.2785V8.13574" stroke="#5D5FEF" strokeWidth="1.5" strokeMiterlimit="1.5" strokeLinecap="round"/>
<path d="M41.7331 10.2432V12.3859C41.7331 15.364 37.88 17.7821 33.135 17.7821C28.39 17.7821 24.5369 15.364 24.5369 12.3859V10.2432" stroke="#5D5FEF" strokeWidth="1.5" strokeMiterlimit="1.5" strokeLinecap="round"/>
<path d="M9.23165 40.0239C13.9767 40.0239 17.8298 42.442 17.8298 45.4193C17.8298 48.3965 13.9767 50.8155 9.23165 50.8155C4.48665 50.8155 0.633545 48.3957 0.633545 45.4193C0.633545 42.4429 4.4858 40.0239 9.23165 40.0239Z" stroke="#5D5FEF" strokeWidth="1.5" strokeMiterlimit="1.5" strokeLinecap="square"/>
<path d="M17.8298 45.4194V47.5622C17.8298 50.5403 13.9767 52.9584 9.23165 52.9584C4.48665 52.9584 0.633545 50.5403 0.633545 47.5622V45.4194" stroke="#5D5FEF" strokeWidth="1.5" strokeMiterlimit="1.5" strokeLinecap="round"/>
<path d="M17.8298 47.5269V49.6705C17.8298 52.6477 13.9767 55.0658 9.23165 55.0658C4.48665 55.0658 0.633545 52.6477 0.633545 49.6705V47.5269" stroke="#5D5FEF" strokeWidth="1.5" strokeMiterlimit="1.5" strokeLinecap="round"/>
<path d="M17.8298 49.6348V51.7742C17.8298 54.7522 13.9767 57.1704 9.23165 57.1704C4.48665 57.1704 0.633545 54.7548 0.633545 51.7742V49.6348" stroke="#5D5FEF" strokeWidth="1.5" strokeMiterlimit="1.5" strokeLinecap="round"/>
<path d="M57.0373 40.0239C61.7832 40.0239 65.6354 42.442 65.6354 45.4193C65.6354 48.3965 61.7832 50.8155 57.0373 50.8155C52.2915 50.8155 48.4392 48.3974 48.4392 45.4193C48.4392 42.4412 52.2923 40.0239 57.0373 40.0239Z" stroke="#5D5FEF" strokeWidth="1.5" strokeMiterlimit="1.5" strokeLinecap="square"/>
<path d="M65.6354 45.4194V47.5622C65.6354 50.5403 61.7832 52.9584 57.0373 52.9584C52.2915 52.9584 48.4392 50.5403 48.4392 47.5622V45.4194" stroke="#5D5FEF" strokeWidth="1.5" strokeMiterlimit="1.5" strokeLinecap="round"/>
<path d="M65.6354 47.5269V49.6705C65.6354 52.6477 61.7832 55.0658 57.0373 55.0658C52.2915 55.0658 48.4392 52.6477 48.4392 49.6705V47.5269" stroke="#5D5FEF" strokeWidth="1.5" strokeMiterlimit="1.5" strokeLinecap="round"/>
<path d="M65.6354 49.6348V51.7742C65.6354 54.7522 61.7832 57.1704 57.0373 57.1704C52.2915 57.1704 48.4392 54.7522 48.4392 51.7742V49.6348" stroke="#5D5FEF" strokeWidth="1.5" strokeMiterlimit="1.5" strokeLinecap="round"/>
<path d="M33.135 47.1594C39.6762 47.1594 44.9789 41.8265 44.9789 35.2479C44.9789 28.6694 39.6762 23.3364 33.135 23.3364C26.5937 23.3364 21.291 28.6694 21.291 35.2479C21.291 41.8265 26.5937 47.1594 33.135 47.1594Z" stroke="#5D5FEF" strokeWidth="1.5" strokeMiterlimit="1.5" strokeLinecap="square"/>
<path d="M31.9745 43.6965C31.0571 43.694 30.1541 43.4681 29.3435 43.0386C28.4468 42.5833 27.6947 41.8871 27.1716 41.0283C26.6484 40.1694 26.3748 39.1818 26.3815 38.1762V32.0021C26.3781 31.0007 26.6676 30.0202 27.2145 29.1813C27.7613 28.3424 28.5416 27.6818 29.4592 27.2807C30.3759 26.8599 31.3942 26.711 32.3929 26.8519C33.3917 26.9928 34.3291 27.4175 35.0936 28.0755L38.9999 31.4067C39.6717 31.9853 40.2001 32.712 40.5433 33.5295C40.8866 34.347 41.0354 35.233 40.9781 36.1178C40.9208 37.0026 40.6589 37.862 40.2131 38.6284C39.7672 39.3948 39.1495 40.0472 38.4087 40.5343L35.0902 42.7421C34.17 43.3618 33.0864 43.6943 31.977 43.6974L31.9745 43.6965ZM27.9229 32.3425V38.1762C27.9182 38.9042 28.1164 39.6192 28.4953 40.2408C28.8743 40.8625 29.4189 41.3663 30.0682 41.6957C30.715 42.0413 31.4438 42.204 32.1762 42.1662C32.9085 42.1284 33.6167 41.8916 34.2245 41.4811L37.543 39.2742C38.088 38.9154 38.5425 38.4352 38.8708 37.8712C39.199 37.3072 39.3922 36.6749 39.435 36.0237C39.4778 35.3726 39.3691 34.7204 39.1174 34.1183C38.8658 33.5162 38.4781 32.9807 37.9847 32.5536L34.0851 29.2233C33.5442 28.7581 32.8811 28.458 32.1746 28.3584C31.4681 28.2588 30.7479 28.3641 30.0994 28.6617C29.8809 28.7596 29.6722 28.8781 29.4761 29.0156C30.3495 28.9398 31.2182 29.206 31.8993 29.758L36.7136 33.633C37.0289 33.8857 37.28 34.2093 37.4464 34.5776C37.6127 34.9458 37.6896 35.3482 37.6706 35.7518C37.6517 36.1554 37.5375 36.5488 37.3374 36.8999C37.1373 37.2509 36.8569 37.5497 36.5193 37.7716L33.3393 39.8831C32.9799 40.1218 32.5628 40.2594 32.1318 40.2814C31.7008 40.3034 31.2719 40.209 30.89 40.0081C30.5103 39.8109 30.1919 39.5134 29.9693 39.148C29.7468 38.7827 29.6285 38.3633 29.6273 37.9355V32.0891L35.347 36.6103C35.3719 36.6293 35.3953 36.6502 35.4171 36.6728L35.657 36.514C35.796 36.4233 35.9117 36.3009 35.9944 36.1569C36.0771 36.0129 36.1245 35.8513 36.1327 35.6854C36.1409 35.5196 36.1098 35.3541 36.0418 35.2026C35.9738 35.0511 35.8708 34.9179 35.7414 34.8138L30.9271 30.9387C30.6586 30.7172 30.332 30.5774 29.9862 30.5361C29.6405 30.4948 29.2902 30.5536 28.9769 30.7056C28.6617 30.8465 28.3944 31.0764 28.2079 31.367C28.0215 31.6576 27.9238 31.9963 27.9271 32.3416L27.9229 32.3425ZM31.1771 35.2589V37.938C31.1762 38.0889 31.2173 38.237 31.2958 38.3659C31.3742 38.4948 31.487 38.5993 31.6214 38.6677C31.7554 38.7397 31.9064 38.7736 32.0583 38.7659C32.2101 38.7581 32.357 38.709 32.4829 38.6238L34.0877 37.5596L31.1771 35.2589Z" fill="#5D5FEF"/>
<path d="M14.8542 12.5903L19.992 12.7018L17.9126 17.4012L14.8542 12.5903Z" stroke="#5D5FEF" strokeWidth="1.5" strokeMiterlimit="10" strokeLinecap="round"/>
<path d="M21.2176 63.8819L18.8315 59.3294L23.9507 58.8784L21.2176 63.8819Z" stroke="#5D5FEF" strokeWidth="1.5" strokeMiterlimit="10" strokeLinecap="round"/>
<path d="M62.5863 30.6851L60.1724 35.2223L56.9131 31.2493L62.5863 30.6851Z" stroke="#5D5FEF" strokeWidth="1.5" strokeMiterlimit="10" strokeLinecap="round"/>
<path d="M45.2205 12.043C48.9201 13.8871 52.151 16.5496 54.6681 19.8286C57.1852 23.1076 58.9224 26.9168 59.7478 30.9673M48.4393 58.7844C44.6899 61.3433 40.3591 62.9217 35.8425 63.3755C31.326 63.8294 26.7677 63.1441 22.5842 61.3824M5.9834 36.3584C5.98154 32.2415 6.91727 28.1782 8.71961 24.4768C10.522 20.7754 13.1436 17.5331 16.3856 14.9957" stroke="#5D5FEF" strokeWidth="1.5" strokeLinecap="round" stroke-linejoin="round"/>
</g>
<defs>
<clipPath id="clip0_382_565">
<rect width="66.2688" height="65.224" fill="white"/>
</clipPath>
</defs>
</svg>
