<svg width="24" height="24" viewBox="0 0 24 24" fill="none" xmlns="http://www.w3.org/2000/svg">
<path d="M11.6853 0C5.23502 0 0 5.19146 0 11.5881C0 17.9847 5.23502 23.1762 11.6853 23.1762C18.1356 23.1762 23.3706 17.9847 23.3706 11.5881C23.3706 5.19146 18.1356 0 11.6853 0ZM10.1428 4.68159C10.9374 3.80089 12.2462 3.75454 13.1343 4.49618C13.181 4.54253 13.2745 4.63523 13.3212 4.68159C13.8821 5.28417 14.1626 6.07215 14.1158 6.9065C14.0224 8.66788 12.8071 9.68764 11.732 9.68764C10.657 9.68764 9.39498 8.48248 9.34824 6.9065C9.25476 6.11851 9.53521 5.28417 10.1428 4.68159ZM17.8084 15.8988C17.2008 16.5478 16.3594 16.8722 15.5181 16.9186C14.7235 16.9186 13.9289 16.6405 13.2745 16.2233L12.7136 15.8061L13.5082 15.0182L13.9756 15.3426C14.443 15.6671 15.0039 15.8061 15.5648 15.8525C16.1257 15.8525 16.6399 15.6207 17.0605 15.2036C17.3877 14.8327 17.528 14.3229 17.4345 13.813C17.2942 12.2834 15.4246 12.237 15.4246 12.237C14.5365 12.2834 13.6952 12.7005 13.0875 13.3495C12.6201 13.813 12.2929 14.1375 12.0125 14.4619C11.732 14.7864 11.4049 15.0645 10.9374 15.5744C10.1428 16.4551 9.02105 16.965 7.85252 17.0113H7.80578C7.01118 17.0113 4.90783 16.5478 4.72086 14.4619C4.62738 13.6739 4.86109 12.8396 5.37524 12.237C5.98288 11.6344 6.82422 11.2636 7.66556 11.2173C8.5069 11.2173 9.3015 11.4954 9.95588 11.9589L10.47 12.3297L9.62869 13.1177L9.25476 12.8396C8.78735 12.5151 8.22645 12.3297 7.61882 12.3297C7.05792 12.3297 6.54377 12.5615 6.1231 12.9787C5.79591 13.3495 5.65569 13.8593 5.74917 14.3692C5.88939 15.8988 7.75904 15.8988 7.75904 15.8988C8.64713 15.8525 9.48847 15.4353 10.0961 14.7864C10.5635 14.3229 10.8907 13.9984 11.1712 13.6739C11.4516 13.3495 11.7788 13.0714 12.2462 12.5615C13.0408 11.6808 14.1626 11.1709 15.3311 11.1246C16.079 11.1246 18.2758 11.4954 18.5095 13.6739C18.603 14.4619 18.3693 15.2499 17.8084 15.8988Z" fill="white"/>
<path d="M11.6853 8.66785C12.1995 8.66785 12.9473 8.06527 12.9941 6.86011C13.0408 6.35023 12.8538 5.79401 12.4799 5.42319C12.2929 5.19143 11.9658 5.05237 11.6386 5.05237C11.3114 5.05237 11.0309 5.19143 10.844 5.42319C10.47 5.84036 10.2831 6.35023 10.3298 6.90646C10.4233 7.92621 11.2646 8.66785 11.6853 8.66785Z" fill="white"/>
</svg>
