<svg width="24" height="24" viewBox="0 0 24 24" fill="none" xmlns="http://www.w3.org/2000/svg">
<path fill-rule="evenodd" clip-rule="evenodd" d="M11.673 0C5.22949 0 0 5.19146 0 11.5881C0 17.9847 5.22949 23.1762 11.673 23.1762C18.1165 23.1762 23.346 17.9847 23.346 11.5881C23.346 5.19146 18.1165 0 11.673 0ZM17.883 12.9323C18.5834 12.6542 19.2838 12.2834 19.8441 11.7735L19.7974 11.8198L19.7507 11.8662C19.3771 12.1907 19.0036 12.5151 18.5834 12.7469C17.5095 13.3495 16.3422 13.7666 15.1282 13.9984C14.3344 14.1838 13.494 14.1375 12.7469 13.8593C12.3734 13.7203 12.0465 13.5349 11.8131 13.2104C12.6068 13.6276 13.494 13.813 14.3811 13.7203C15.5951 13.7203 16.8091 13.4422 17.883 12.9323ZM17.1359 11.0319C17.1359 10.8001 17.3227 10.5683 17.5562 10.5683C17.7896 10.5683 18.0231 10.7537 18.0231 10.9855C18.0231 11.2173 17.8363 11.449 17.5562 11.449C17.3694 11.4954 17.1826 11.2636 17.1359 11.0319ZM10.1321 11.0319C8.96485 11.0319 8.03101 10.1048 8.03101 8.946C8.03101 7.78719 8.96485 6.86014 10.1321 6.86014C11.2994 6.86014 12.2333 7.78719 12.2333 8.946C12.2333 10.1048 11.2994 11.0319 10.1321 11.0319ZM15.9686 21.4148C15.2683 21.7392 14.5212 21.971 13.7741 22.1101C13.7274 22.1101 13.6807 22.1101 13.634 22.1564C13.494 21.044 13.6807 19.8851 14.1943 18.8654C14.8013 17.6139 15.5484 16.4551 16.4822 15.4353C17.276 14.5546 18.1165 13.7666 18.9569 12.9323C19.2838 12.6078 19.6106 12.237 19.8441 11.8662L19.8908 11.8198C19.9841 11.6808 20.0775 11.4954 20.1242 11.31C20.5911 10.3829 20.2643 9.31682 19.4238 8.76059C18.7235 8.29707 17.9297 7.92625 17.0892 7.74084C16.2955 7.50908 15.5017 7.23096 14.7546 6.9065C14.6146 6.44297 14.241 6.0258 13.7274 5.88675C13.0737 5.70134 12.42 5.70134 11.7664 5.88675C11.1127 5.74769 10.4123 5.65498 9.75861 5.70134C9.01154 5.74769 8.31116 5.9331 7.65747 6.25756C6.81702 6.53568 6.06995 6.9992 5.46295 7.64813C4.80927 8.34342 4.38904 9.22411 4.24896 10.1512C4.10889 10.9391 4.10889 11.7735 4.0155 12.6078C3.92212 14.3692 3.54858 16.0843 2.84821 17.7066C2.66144 17.5212 2.47467 17.2431 2.38129 17.0577C1.68091 15.8988 1.21399 14.601 1.02722 13.2104C0.933838 12.6078 0.887146 12.0053 0.887146 11.449C0.98053 6.81379 3.96881 2.78114 8.35785 1.39057C9.61853 0.973399 10.9259 0.78799 12.2333 0.880694C15.0815 1.01975 17.7429 2.27126 19.6573 4.40347C21.1047 5.97945 22.0386 7.92625 22.3187 10.0121C22.6456 12.1907 22.3187 14.4619 21.2915 16.4087C20.1709 18.68 18.2565 20.4414 15.9686 21.4148Z" fill="white"/>
<path fill-rule="evenodd" clip-rule="evenodd" d="M10.1787 7.55542C9.38495 7.55542 8.68457 8.158 8.68457 8.99234V9.03869C8.68457 9.82668 9.33826 10.4756 10.132 10.4756H10.1787C10.9725 10.4756 11.6262 9.82668 11.6262 8.99234C11.5795 8.20435 10.9725 7.55542 10.1787 7.55542Z" fill="white"/>
</svg>
