<svg width="122" height="50" viewBox="0 0 122 50" fill="none" xmlns="http://www.w3.org/2000/svg">
<g clip-path="url(#clip0_372_388)">
<path d="M120.911 31.265H79.2671V42.227C79.2674 43.0653 79.6005 43.8691 80.1932 44.4619C80.786 45.0546 81.5898 45.3878 82.4281 45.388H117.75C118.588 45.3878 119.392 45.0546 119.985 44.4619C120.578 43.8691 120.911 43.0653 120.911 42.227V31.265Z" stroke="#5D5FEF" stroke-width="1.5" stroke-linecap="round" stroke-linejoin="round"/>
<path d="M120.91 17.1429H79.2671V31.2649H120.91V17.1429Z" stroke="#5D5FEF" stroke-width="1.5" stroke-linecap="round" stroke-linejoin="round"/>
<path d="M120.911 6.181C120.911 5.76594 120.829 5.35494 120.67 4.97149C120.512 4.58803 120.279 4.23963 119.985 3.94619C119.692 3.65274 119.343 3.42 118.96 3.26125C118.576 3.1025 118.165 3.02086 117.75 3.021H82.4281C82.013 3.02086 81.602 3.1025 81.2185 3.26125C80.835 3.42 80.4865 3.65274 80.193 3.94619C79.8994 4.23963 79.6666 4.58803 79.5077 4.97149C79.3489 5.35494 79.2671 5.76594 79.2671 6.181V17.143H120.911V6.181Z" stroke="#5D5FEF" stroke-width="1.5" stroke-linecap="round" stroke-linejoin="round"/>
<path d="M88.769 36.776C89.1312 36.7758 89.4853 36.883 89.7866 37.0842C90.0879 37.2853 90.3227 37.5712 90.4614 37.9058C90.6001 38.2405 90.6364 38.6087 90.5658 38.964C90.4952 39.3192 90.3208 39.6456 90.0647 39.9017C89.8085 40.1578 89.4822 40.3322 89.1269 40.4029C88.7717 40.4735 88.4034 40.4371 88.0688 40.2984C87.7342 40.1597 87.4482 39.9249 87.2471 39.6236C87.046 39.3224 86.9388 38.9682 86.939 38.606C86.9392 38.1207 87.1321 37.6554 87.4753 37.3123C87.8184 36.9692 88.2837 36.7763 88.769 36.776Z" stroke="#5D5FEF" stroke-width="1.5" stroke-linecap="round" stroke-linejoin="round"/>
<path d="M105.236 37.934V38.719" stroke="#5D5FEF" stroke-width="1.5" stroke-linecap="round" stroke-linejoin="round"/>
<path d="M110.978 37.934V38.719" stroke="#5D5FEF" stroke-width="1.5" stroke-linecap="round" stroke-linejoin="round"/>
<path d="M116.721 37.934V38.719" stroke="#5D5FEF" stroke-width="1.5" stroke-linecap="round" stroke-linejoin="round"/>
<path d="M88.769 22.653C89.1311 22.6528 89.4852 22.76 89.7865 22.961C90.0877 23.1621 90.3226 23.448 90.4613 23.7826C90.6 24.1171 90.6364 24.4853 90.5659 24.8406C90.4954 25.1958 90.3211 25.5221 90.065 25.7783C89.809 26.0345 89.4827 26.209 89.1275 26.2797C88.7723 26.3504 88.4041 26.3142 88.0695 26.1757C87.7349 26.0371 87.4488 25.8024 87.2476 25.5013C87.0464 25.2002 86.939 24.8461 86.939 24.484C86.9392 23.9986 87.1321 23.5332 87.4752 23.1899C87.8183 22.8466 88.2836 22.6535 88.769 22.653V22.653Z" stroke="#5D5FEF" stroke-width="1.5" stroke-linecap="round" stroke-linejoin="round"/>
<path d="M105.236 23.812V24.596" stroke="#5D5FEF" stroke-width="1.5" stroke-linecap="round" stroke-linejoin="round"/>
<path d="M110.978 23.812V24.596" stroke="#5D5FEF" stroke-width="1.5" stroke-linecap="round" stroke-linejoin="round"/>
<path d="M116.721 23.812V24.596" stroke="#5D5FEF" stroke-width="1.5" stroke-linecap="round" stroke-linejoin="round"/>
<path d="M88.769 8.53101C89.1311 8.53081 89.4852 8.63803 89.7865 8.8391C90.0877 9.04017 90.3226 9.32606 90.4613 9.66062C90.6 9.99517 90.6364 10.3634 90.5659 10.7186C90.4954 11.0738 90.3211 11.4002 90.065 11.6564C89.809 11.9125 89.4827 12.087 89.1275 12.1578C88.7723 12.2285 88.4041 12.1923 88.0695 12.0537C87.7349 11.9152 87.4488 11.6805 87.2476 11.3794C87.0464 11.0782 86.939 10.7242 86.939 10.362C86.939 9.87657 87.1317 9.411 87.4749 9.06765C87.8181 8.7243 88.2835 8.53127 88.769 8.53101V8.53101Z" stroke="#5D5FEF" stroke-width="1.5" stroke-linecap="round" stroke-linejoin="round"/>
<path d="M105.236 9.68994V10.4739" stroke="#5D5FEF" stroke-width="1.5" stroke-linecap="round" stroke-linejoin="round"/>
<path d="M110.978 9.68994V10.4739" stroke="#5D5FEF" stroke-width="1.5" stroke-linecap="round" stroke-linejoin="round"/>
<path d="M116.721 9.68994V10.4739" stroke="#5D5FEF" stroke-width="1.5" stroke-linecap="round" stroke-linejoin="round"/>
<path d="M91.1161 45.3879H86.4221V49.1749H91.1161V45.3879Z" stroke="#5D5FEF" stroke-width="1.5" stroke-linecap="round" stroke-linejoin="round"/>
<path d="M113.756 45.3879H109.062V49.1749H113.756V45.3879Z" stroke="#5D5FEF" stroke-width="1.5" stroke-linecap="round" stroke-linejoin="round"/>
<path d="M69.061 14.396L72.436 17.771L69.061 21.146" stroke="#5D5FEF" stroke-width="1.5" stroke-miterlimit="10" stroke-linecap="round"/>
<path d="M55.6599 17.771H72.4359" stroke="#5D5FEF" stroke-width="1.5" stroke-linecap="round" stroke-linejoin="round"/>
<path d="M60.095 37.8L56.72 34.425L60.095 31.05" stroke="#5D5FEF" stroke-width="1.5" stroke-miterlimit="10" stroke-linecap="round"/>
<path d="M73.496 34.425H56.72" stroke="#5D5FEF" stroke-width="1.5" stroke-linecap="round" stroke-linejoin="round"/>
<path d="M39.793 14.63C39.793 6.96429 33.5787 0.75 25.913 0.75C18.2472 0.75 12.033 6.96429 12.033 14.63V35.295C12.033 42.9607 18.2472 49.175 25.913 49.175C33.5787 49.175 39.793 42.9607 39.793 35.295V14.63Z" stroke="#5D5FEF" stroke-width="1.5" stroke-linejoin="round"/>
<path d="M39.793 19.9449H12.033" stroke="#5D5FEF" stroke-width="1.5" stroke-linejoin="round"/>
<path d="M30.349 10.78H21.478C20.7374 10.78 20.137 11.3804 20.137 12.121C20.137 12.8616 20.7374 13.462 21.478 13.462H30.349C31.0896 13.462 31.69 12.8616 31.69 12.121C31.69 11.3804 31.0896 10.78 30.349 10.78Z" fill="#5D5FEF"/>
<path d="M30.349 10.78H21.478C20.7374 10.78 20.137 11.3804 20.137 12.121C20.137 12.8616 20.7374 13.462 21.478 13.462H30.349C31.0896 13.462 31.69 12.8616 31.69 12.121C31.69 11.3804 31.0896 10.78 30.349 10.78Z" stroke="#5D5FEF" stroke-width="1.5" stroke-linejoin="round"/>
<path d="M9.10006 17.426C9.68055 17.4262 10.2479 17.5986 10.7305 17.9212C11.213 18.2439 11.5891 18.7024 11.811 19.2388C12.033 19.7752 12.0909 20.3653 11.9775 20.9346C11.864 21.5039 11.5843 22.0268 11.1737 22.4371C10.7631 22.8474 10.24 23.1268 9.67067 23.2398C9.1013 23.3529 8.51119 23.2946 7.97496 23.0722C7.43874 22.8499 6.98048 22.4736 6.65814 21.9908C6.33581 21.508 6.16386 20.9405 6.16406 20.36C6.16459 19.5817 6.47415 18.8354 7.0247 18.2853C7.57525 17.7351 8.32173 17.426 9.10006 17.426V17.426Z" stroke="#5D5FEF" stroke-width="1.5" stroke-linejoin="round"/>
<path d="M42.728 17.426C42.1474 17.4258 41.5798 17.5978 41.097 17.9202C40.6142 18.2427 40.2379 18.701 40.0156 19.2374C39.7933 19.7737 39.7351 20.3639 39.8483 20.9334C39.9616 21.5028 40.2411 22.0259 40.6516 22.4364C41.0622 22.8469 41.5852 23.1265 42.1546 23.2397C42.7241 23.3529 43.3143 23.2947 43.8506 23.0724C44.387 22.8502 44.8453 22.4738 45.1678 21.991C45.4902 21.5082 45.6622 20.9406 45.662 20.36C45.6615 19.582 45.3522 18.8361 44.8021 18.286C44.2519 17.7358 43.506 17.4266 42.728 17.426V17.426Z" stroke="#5D5FEF" stroke-width="1.5" stroke-linejoin="round"/>
<path d="M1.92201 42.454C1.36206 41.8938 0.980768 41.1802 0.826357 40.4033C0.671947 39.6265 0.751348 38.8213 1.05452 38.0896C1.3577 37.3578 1.87103 36.7324 2.52961 36.2924C3.1882 35.8524 3.96246 35.6176 4.75451 35.6176C5.54656 35.6176 6.32083 35.8524 6.97941 36.2924C7.638 36.7324 8.15133 37.3578 8.45451 38.0896C8.75768 38.8213 8.83708 39.6265 8.68267 40.4033C8.52826 41.1802 8.14697 41.8938 7.58701 42.454" stroke="#5D5FEF" stroke-width="1.5" stroke-linejoin="round"/>
<path d="M49.9 42.454C50.4601 41.8939 50.8415 41.1803 50.996 40.4034C51.1506 39.6265 51.0712 38.8212 50.7681 38.0894C50.465 37.3576 49.9517 36.7321 49.293 36.292C48.6344 35.852 47.8601 35.6171 47.068 35.6171C46.2759 35.6171 45.5016 35.852 44.8429 36.292C44.1843 36.7321 43.671 37.3576 43.3679 38.0894C43.0647 38.8212 42.9854 39.6265 43.1399 40.4034C43.2945 41.1803 43.6759 41.8939 44.236 42.454" stroke="#5D5FEF" stroke-width="1.5" stroke-linejoin="round"/>
<path d="M7.34513 22.645L4.75513 29.002V35.617" stroke="#5D5FEF" stroke-width="1.5" stroke-linejoin="round"/>
<path d="M44.4819 22.645L47.0719 29.002V35.617" stroke="#5D5FEF" stroke-width="1.5" stroke-linejoin="round"/>
<path d="M24.7731 41.246C23.9118 41.2435 23.0641 41.0314 22.3031 40.628C21.4613 40.2004 20.7551 39.5469 20.2638 38.7406C19.7724 37.9343 19.5153 37.0072 19.5211 36.063V30.263C19.5177 29.3225 19.7894 28.4014 20.3029 27.6134C20.8165 26.8254 21.5493 26.2048 22.4111 25.828C23.2719 25.4329 24.2281 25.2932 25.1659 25.4254C26.1038 25.5577 26.9841 25.9563 27.7021 26.574L31.3711 29.7C32.0017 30.2436 32.4976 30.9262 32.8196 31.6939C33.1417 32.4617 33.2811 33.2937 33.227 34.1245C33.173 34.9553 32.9268 35.7622 32.5079 36.4818C32.089 37.2013 31.5089 37.8138 30.8131 38.271L27.7001 40.349C26.836 40.9319 25.8184 41.2451 24.7761 41.249L24.7731 41.246ZM20.9761 30.586V36.066C20.9726 36.7486 21.1591 37.4188 21.5146 38.0015C21.87 38.5843 22.3806 39.0567 22.9891 39.366C23.596 39.6901 24.2797 39.8427 24.9669 39.8075C25.654 39.7723 26.3185 39.5505 26.8891 39.166L30.0001 37.091C30.5123 36.7543 30.9395 36.3033 31.248 35.7736C31.5566 35.2439 31.738 34.6498 31.7781 34.0381C31.8183 33.4264 31.716 32.8137 31.4793 32.2482C31.2426 31.6827 30.878 31.1798 30.4141 30.779L26.7521 27.656C26.2443 27.2191 25.6218 26.9372 24.9585 26.8436C24.2952 26.75 23.619 26.8487 23.0101 27.128C22.8047 27.2203 22.6085 27.3318 22.4241 27.461C23.2448 27.3903 24.061 27.6413 24.7001 28.161L29.2261 31.8C29.5239 32.0366 29.7612 32.3406 29.9184 32.6869C30.0756 33.0332 30.1483 33.412 30.1304 33.7919C30.1125 34.1718 30.0046 34.542 29.8156 34.872C29.6265 35.2021 29.3618 35.4824 29.0431 35.69L26.0571 37.67C25.7195 37.8941 25.3278 38.0232 24.9231 38.0438C24.5185 38.0644 24.1157 37.9757 23.7571 37.787C23.4006 37.6019 23.1016 37.3226 22.8925 36.9796C22.6834 36.6365 22.5723 36.2428 22.5711 35.841V30.345L27.9431 34.591C27.9663 34.6093 27.9883 34.629 28.0091 34.65L28.2341 34.501C28.3652 34.4156 28.4741 34.3003 28.5518 34.1646C28.6296 34.0288 28.674 33.8765 28.6813 33.7202C28.6886 33.564 28.6587 33.4082 28.594 33.2657C28.5293 33.1233 28.4316 32.9983 28.3091 32.901L23.7861 29.262C23.5338 29.0543 23.2272 28.9232 22.9027 28.8844C22.5781 28.8456 22.2493 28.9006 21.9551 29.043C21.659 29.1754 21.4079 29.3914 21.2328 29.6644C21.0576 29.9374 20.966 30.2557 20.9691 30.58L20.9761 30.586ZM24.0211 33.319V35.835C24.0203 35.9766 24.0589 36.1157 24.1325 36.2366C24.2061 36.3576 24.3119 36.4557 24.4381 36.52C24.5641 36.5875 24.7061 36.6193 24.8488 36.6121C24.9915 36.6048 25.1296 36.5588 25.2481 36.479L26.7541 35.479L24.0211 33.319Z" fill="#5D5FEF"/>
</g>
<defs>
<clipPath id="clip0_372_388">
<rect width="121.661" height="49.925" fill="white"/>
</clipPath>
</defs>
</svg>
