<svg width="96" height="74" viewBox="0 0 96 74" fill="none" xmlns="http://www.w3.org/2000/svg">
<g clip-path="url(#clip0_381_490)">
<path d="M46.819 39.3619C46.0091 39.3599 45.2118 39.1608 44.496 38.7819C43.7043 38.3797 43.0402 37.7651 42.5781 37.0069C42.1159 36.2488 41.8738 35.3769 41.879 34.4889V29.0349C41.8763 28.1501 42.1324 27.2837 42.6159 26.5426C43.0994 25.8015 43.789 25.218 44.6 24.8639C45.4095 24.4923 46.3085 24.3608 47.1906 24.4848C48.0726 24.6089 48.9005 24.9834 49.576 25.5639L53.026 28.5059C53.6191 29.0172 54.0855 29.659 54.3884 30.3811C54.6913 31.1031 54.8226 31.8856 54.7718 32.667C54.721 33.4483 54.4896 34.2072 54.0957 34.884C53.7018 35.5607 53.1563 36.1368 52.502 36.5669L49.571 38.5169C48.7582 39.0637 47.8015 39.3571 46.822 39.3599L46.819 39.3619ZM43.243 29.3349V34.4889C43.2381 35.1322 43.4127 35.7641 43.7471 36.3136C44.0815 36.8632 44.5624 37.3086 45.136 37.5999C45.7072 37.9049 46.3507 38.0484 46.9974 38.0149C47.644 37.9815 48.2693 37.7723 48.806 37.4099L51.737 35.4589C52.2186 35.1423 52.6202 34.7183 52.9102 34.2202C53.2003 33.7221 53.3709 33.1636 53.4087 32.5885C53.4465 32.0134 53.3504 31.4373 53.128 30.9056C52.9056 30.3738 52.563 29.9009 52.127 29.5239L48.683 26.5859C48.2056 26.1746 47.6202 25.9089 46.9962 25.8203C46.3723 25.7316 45.7361 25.8238 45.163 26.0859C44.9702 26.1734 44.7858 26.2781 44.612 26.3989C45.3837 26.3322 46.1511 26.5674 46.753 27.0549L51.006 30.4769C51.2853 30.6999 51.5077 30.9858 51.6551 31.3113C51.8025 31.6368 51.8707 31.9926 51.854 32.3496C51.8373 32.7065 51.7362 33.0544 51.5591 33.3648C51.382 33.6751 51.1338 33.939 50.835 34.1349L48.026 35.9999C47.7086 36.2105 47.3404 36.3319 46.9601 36.3512C46.5797 36.3706 46.2011 36.2872 45.864 36.1099C45.5286 35.9359 45.2474 35.6734 45.0508 35.3507C44.8542 35.0281 44.7498 34.6577 44.749 34.2799V29.1119L49.8 33.0999C49.8218 33.1173 49.8425 33.136 49.862 33.1559L50.074 33.0159C50.1962 32.9353 50.2976 32.827 50.37 32.6998C50.4424 32.5725 50.4836 32.43 50.4905 32.2837C50.4973 32.1375 50.4695 31.9917 50.4093 31.8583C50.349 31.7249 50.2581 31.6076 50.144 31.5159L45.891 28.0999C45.6538 27.9044 45.3654 27.781 45.0602 27.7445C44.7549 27.708 44.4456 27.7599 44.169 27.8939C43.8907 28.0184 43.6547 28.2215 43.4902 28.4782C43.3257 28.7349 43.2398 29.0341 43.243 29.3389V29.3349ZM46.112 31.9149V34.2809C46.1113 34.4142 46.1477 34.545 46.2171 34.6587C46.2865 34.7725 46.3862 34.8646 46.505 34.9249C46.6233 34.9884 46.7567 35.0184 46.8908 35.0117C47.0249 35.0051 47.1546 34.9619 47.266 34.8869L48.683 33.9469L46.112 31.9149Z" fill="#5D5FEF"/>
<path d="M47.83 20.782C50.0294 20.782 52.1794 21.4342 54.0081 22.6562C55.8368 23.8781 57.2621 25.615 58.1037 27.647C58.9453 29.679 59.1654 31.915 58.7361 34.0721C58.3069 36.2292 57.2476 38.2106 55.6923 39.7657C54.1369 41.3208 52.1553 42.3797 49.9981 42.8086C47.8409 43.2374 45.605 43.0169 43.5731 42.1749C41.5413 41.333 39.8047 39.9074 38.583 38.0785C37.3614 36.2495 36.7096 34.0994 36.71 31.9C36.7118 28.9515 37.884 26.1244 39.9691 24.0397C42.0542 21.955 44.8815 20.7833 47.83 20.782V20.782Z" stroke="#5D5FEF" stroke-width="1.5"/>
<path d="M43.188 63.5V48.921C43.188 48.3855 43.4008 47.872 43.7794 47.4933C44.158 47.1147 44.6716 46.902 45.207 46.902C45.7425 46.902 46.2561 47.1147 46.6347 47.4933C47.0133 47.872 47.226 48.3855 47.226 48.921V55.227C47.226 54.6719 47.4466 54.1395 47.8391 53.747C48.2316 53.3545 48.7639 53.134 49.319 53.134V53.134C49.8741 53.134 50.4065 53.3545 50.799 53.747C51.1915 54.1395 51.412 54.6719 51.412 55.227V55.978C51.412 55.421 51.6333 54.8869 52.0271 54.4931C52.4209 54.0992 52.9551 53.878 53.512 53.878C54.069 53.878 54.6031 54.0992 54.997 54.4931C55.3908 54.8869 55.612 55.421 55.612 55.978V57.178C55.612 56.6741 55.8122 56.1908 56.1685 55.8345C56.5249 55.4782 57.0081 55.278 57.512 55.278V55.278C58.016 55.278 58.4992 55.4782 58.8555 55.8345C59.2119 56.1908 59.412 56.6741 59.412 57.178V62.859C59.412 65.601 57.706 72.929 52.371 72.929C47.036 72.929 44.594 69.689 41.553 67.495C40.1 66.448 38.83 65.457 37.899 64.708C37.6855 64.5341 37.509 64.3192 37.3799 64.076C37.2509 63.8327 37.172 63.566 37.1478 63.2917C37.1237 63.0174 37.1548 62.741 37.2393 62.479C37.3239 62.2169 37.4601 61.9745 37.64 61.766C38.0102 61.3358 38.5328 61.0662 39.0978 61.0137C39.6628 60.9613 40.2261 61.1303 40.669 61.485L43.188 63.5Z" stroke="#5D5FEF" stroke-width="1.5"/>
<path d="M79.105 19.3099C88.799 17.3639 94.905 14.5279 94.905 11.3719V46.562C94.905 49.718 88.794 52.5539 79.105 54.4999V19.3099Z" stroke="#5D5FEF" stroke-width="1.5" stroke-linecap="round"/>
<path d="M16.554 19.3099C6.86 17.3639 0.75 14.5279 0.75 11.3719V46.562C0.75 49.718 6.86 52.5539 16.55 54.4999L16.554 19.3099Z" stroke="#5D5FEF" stroke-width="1.5" stroke-linecap="round"/>
<path d="M0.75 46.789V11.372C0.75 5.51 21.846 0.75 47.83 0.75C73.814 0.75 94.91 5.51 94.91 11.372V46.789M37.033 36.273C30.1656 36.7509 23.3303 37.6119 16.559 38.852M79.11 38.852C72.2858 37.593 65.3926 36.7428 58.467 36.306L79.11 38.852Z" stroke="#5D5FEF" stroke-width="1.5" stroke-linecap="round"/>
<path d="M77.561 10.849C79.64 11.232 81.573 11.649 83.335 12.11M12.7 12.014C19.0965 10.5043 25.6053 9.51775 32.1619 9.06396L12.7 12.014ZM64.702 9.16396C67.796 9.43196 70.7329 9.77196 73.4729 10.175L64.702 9.16396Z" stroke="#5D5FEF" stroke-width="1.5" stroke-linecap="round"/>
<path d="M65.0161 16.903C67.8481 17.154 70.5461 17.465 73.0801 17.829M22.5791 17.829C25.5631 17.4 28.7791 17.045 32.1651 16.775L22.5791 17.829Z" stroke="#5D5FEF" stroke-width="1.5" stroke-linecap="round"/>
</g>
<defs>
<clipPath id="clip0_381_490">
<rect width="95.66" height="73.676" fill="white"/>
</clipPath>
</defs>
</svg>
