<svg width="78" height="69" viewBox="0 0 78 69" fill="none" xmlns="http://www.w3.org/2000/svg">
<g clip-path="url(#clip0_381_501)">
<path d="M5.833 41.875H0.75V59.55H5.833V41.875Z" stroke="#5D5FEF" stroke-width="1.5"/>
<path d="M3.29199 41.875V35.592" stroke="#5D5FEF" stroke-width="1.5"/>
<path d="M3.29199 65.833V59.55" stroke="#5D5FEF" stroke-width="1.5"/>
<path d="M14.7051 35.068H9.62207V47.178H14.7051V35.068Z" stroke="#5D5FEF" stroke-width="1.5"/>
<path d="M12.1641 35.0679V30.7629" stroke="#5D5FEF" stroke-width="1.5"/>
<path d="M12.1641 51.483V47.178" stroke="#5D5FEF" stroke-width="1.5"/>
<path d="M41.321 45.428H36.238V57.537H41.321V45.428Z" stroke="#5D5FEF" stroke-width="1.5"/>
<path d="M38.7791 45.428V41.123" stroke="#5D5FEF" stroke-width="1.5"/>
<path d="M38.7791 61.843V57.538" stroke="#5D5FEF" stroke-width="1.5"/>
<path d="M67.8621 20.923H62.7791V38.546H67.8621V20.923Z" stroke="#5D5FEF" stroke-width="1.5"/>
<path d="M65.3201 20.923V14.658" stroke="#5D5FEF" stroke-width="1.5"/>
<path d="M65.3201 44.812V38.547" stroke="#5D5FEF" stroke-width="1.5"/>
<path d="M23.5769 46.26H18.4939V55.153H23.5769V46.26Z" fill="#5D5FEF"/>
<path d="M23.5769 46.26H18.4939V55.153H23.5769V46.26Z" stroke="#5D5FEF" stroke-width="1.5"/>
<path d="M21.0359 46.26V36.484" stroke="#5D5FEF" stroke-width="1.5"/>
<path d="M21.0359 58.314V55.153" stroke="#5D5FEF" stroke-width="1.5"/>
<path d="M76.8379 30.2729H71.7549V39.1659H76.8379V30.2729Z" fill="#5D5FEF"/>
<path d="M76.8379 30.2729H71.7549V39.1659H76.8379V30.2729Z" stroke="#5D5FEF" stroke-width="1.5"/>
<path d="M74.2959 39.166V48.942" stroke="#5D5FEF" stroke-width="1.5"/>
<path d="M74.2959 27.111V30.273" stroke="#5D5FEF" stroke-width="1.5"/>
<path d="M50.1931 34.524H45.1101V43.417H50.1931V34.524Z" stroke="#5D5FEF" stroke-width="1.5"/>
<path d="M47.6509 43.417V53.25" stroke="#5D5FEF" stroke-width="1.5"/>
<path d="M47.6509 31.363V34.524" stroke="#5D5FEF" stroke-width="1.5"/>
<path d="M32.449 56.62H27.366V63.694H32.449V56.62Z" fill="#5D5FEF"/>
<path d="M32.449 56.62H27.366V63.694H32.449V56.62Z" stroke="#5D5FEF" stroke-width="1.5"/>
<path d="M29.908 56.62V53.25" stroke="#5D5FEF" stroke-width="1.5"/>
<path d="M29.908 68.315V63.693" stroke="#5D5FEF" stroke-width="1.5"/>
<path d="M58.99 38.141H53.907V42.176H58.99V38.141Z" fill="#5D5FEF"/>
<path d="M58.99 38.141H53.907V42.176H58.99V38.141Z" stroke="#5D5FEF" stroke-width="1.5"/>
<path d="M56.448 38.141V36.219" stroke="#5D5FEF" stroke-width="1.5"/>
<path d="M56.448 44.812V42.176" stroke="#5D5FEF" stroke-width="1.5"/>
<path d="M37.678 21.006C36.7952 21.0033 35.9263 20.7861 35.146 20.373C34.283 19.9346 33.5591 19.2646 33.0554 18.438C32.5517 17.6114 32.2881 16.6609 32.294 15.693V9.74695C32.2907 8.78266 32.5694 7.83844 33.0959 7.03054C33.6223 6.22264 34.3735 5.58633 35.257 5.19995C36.1397 4.79506 37.12 4.65191 38.0816 4.78751C39.0432 4.92311 39.9458 5.33176 40.682 5.96495L44.443 9.17295C45.0897 9.73028 45.5981 10.4301 45.9284 11.2173C46.2586 12.0045 46.4016 12.8576 46.3462 13.7094C46.2907 14.5613 46.0383 15.3887 45.6088 16.1264C45.1793 16.8642 44.5845 17.4921 43.871 17.961L40.676 20.086C39.7892 20.6828 38.7451 21.003 37.676 21.006H37.678ZM33.776 10.074V15.693C33.7715 16.3934 33.9621 17.0812 34.3265 17.6795C34.6909 18.2777 35.2146 18.7626 35.839 19.08C36.4617 19.4122 37.163 19.5685 37.8678 19.532C38.5726 19.4955 39.2541 19.2677 39.839 18.873L43.039 16.746C43.5642 16.4009 44.0022 15.9387 44.3185 15.3957C44.6348 14.8527 44.8209 14.2438 44.8621 13.6167C44.9033 12.9897 44.7985 12.3617 44.5559 11.782C44.3133 11.2023 43.9396 10.6868 43.464 10.276L39.709 7.07595C39.1885 6.6281 38.5502 6.33913 37.8702 6.24341C37.1902 6.14768 36.497 6.24922 35.873 6.53595C35.6628 6.63021 35.4619 6.74405 35.273 6.87595C36.114 6.80307 36.9504 7.0594 37.606 7.59095L42.243 11.322C42.5475 11.565 42.79 11.8768 42.9506 12.2317C43.1112 12.5866 43.1855 12.9745 43.1672 13.3637C43.149 13.7528 43.0388 14.1321 42.8456 14.4704C42.6525 14.8087 42.3819 15.0964 42.056 15.31L38.995 17.34C38.649 17.5695 38.2477 17.7017 37.833 17.7229C37.4183 17.744 37.0056 17.6532 36.638 17.46C36.2717 17.2699 35.9645 16.9828 35.7501 16.6302C35.5357 16.2775 35.4222 15.8727 35.422 15.46V9.83095L40.929 14.184C40.953 14.2021 40.9754 14.2222 40.996 14.244L41.227 14.091C41.3608 14.0033 41.4718 13.8852 41.5511 13.7463C41.6304 13.6075 41.6757 13.4518 41.6832 13.2921C41.6907 13.1324 41.6603 12.9731 41.5944 12.8275C41.5285 12.6818 41.429 12.5538 41.304 12.454L36.667 8.72295C36.4084 8.50988 36.094 8.37558 35.7613 8.33605C35.4285 8.29652 35.0914 8.35341 34.79 8.49995C34.4861 8.63491 34.2284 8.85605 34.0489 9.136C33.8694 9.41595 33.7759 9.74241 33.78 10.075L33.776 10.074ZM36.908 12.884V15.463C36.9075 15.6078 36.9473 15.75 37.0229 15.8736C37.0984 15.9972 37.2069 16.0974 37.336 16.163C37.465 16.2326 37.6106 16.2656 37.7569 16.2582C37.9033 16.2508 38.0448 16.2033 38.166 16.121L39.71 15.1L36.908 12.884Z" fill="#5D5FEF"/>
<path d="M38.7941 24.994C45.4889 24.994 50.9161 19.5668 50.9161 12.872C50.9161 6.1772 45.4889 0.75 38.7941 0.75C32.0993 0.75 26.6721 6.1772 26.6721 12.872C26.6721 19.5668 32.0993 24.994 38.7941 24.994Z" stroke="#5D5FEF" stroke-width="1.5"/>
</g>
<defs>
<clipPath id="clip0_381_501">
<rect width="77.588" height="68.315" fill="white"/>
</clipPath>
</defs>
</svg>
