<svg width="26" height="26" viewBox="0 0 26 26" fill="none" xmlns="http://www.w3.org/2000/svg">
<path d="M17.9489 9.20064C17.5479 9.3785 17.1166 9.49866 16.6641 9.55272C17.1261 9.27551 17.4803 8.83724 17.6476 8.31459C17.2152 8.57171 16.7364 8.75762 16.2265 8.85732C15.8186 8.42307 15.2371 8.15134 14.5932 8.15134C13.3573 8.15134 12.3555 9.15279 12.3555 10.3887C12.3555 10.5637 12.3755 10.735 12.4135 10.8982C10.5538 10.8051 8.90514 9.91393 7.80179 8.56039C7.60858 8.89092 7.49865 9.27551 7.49865 9.68566C7.49865 10.4618 7.89346 11.1469 8.4939 11.5476C8.12721 11.5363 7.78243 11.4355 7.48112 11.2678C7.48002 11.2773 7.48002 11.2868 7.48002 11.296C7.48002 12.3807 8.25138 13.2854 9.27512 13.4902C9.08776 13.541 8.8898 13.5688 8.68564 13.5688C8.54174 13.5688 8.40149 13.5545 8.2649 13.5286C8.54941 14.4176 9.37592 15.0647 10.3551 15.0826C9.58885 15.6831 8.62465 16.0406 7.57571 16.0406C7.39529 16.0406 7.21742 16.03 7.04175 16.0092C8.03225 16.6444 9.20828 17.0151 10.472 17.0151C14.5881 17.0151 16.8383 13.6053 16.8383 10.6484C16.8383 10.5513 16.8361 10.4548 16.8321 10.3588C17.27 10.0432 17.6494 9.64914 17.9489 9.20064Z" fill="white"/>
<circle cx="12.5405" cy="12.5405" r="12.0405" stroke="white"/>
</svg>
