<svg xmlns="http://www.w3.org/2000/svg" viewBox="0 0 236.55 221.08"><defs><style>.cls-1{fill:none;stroke:#5b5ef0;stroke-linecap:round;stroke-linejoin:round;stroke-width:5px;}.cls-2{fill:#5b5ef0;}</style></defs><g id="Capa_2" data-name="Capa 2"><g id="Layer_1" data-name="Layer 1"><ellipse class="cls-1" cx="194.24" cy="77.04" rx="39.81" ry="17.69"/><path class="cls-1" d="M234.05,104.85c0,9.77-17.83,17.69-39.81,17.69s-39.81-7.92-39.81-17.69" transform="translate(0 -1.27)"/><path class="cls-1" d="M189.81,149c1.42.09,2.92.09,4.43.09,22,0,39.81-8,39.81-17.69" transform="translate(0 -1.27)"/><polyline class="cls-1" points="154.43 77.03 154.43 103.58 154.43 121.27"/><path class="cls-1" d="M189.81,175.53c1.42.09,2.92.09,4.43.09,22,0,39.81-8,39.81-17.69V78.31" transform="translate(0 -1.27)"/><line class="cls-1" x1="156.2" y1="161.96" x2="156.2" y2="161.87"/><ellipse class="cls-1" cx="132.31" cy="147.81" rx="39.81" ry="17.69"/><path class="cls-1" d="M172.12,175.62c0,9.77-17.82,17.69-39.81,17.69S92.5,185.39,92.5,175.62" transform="translate(0 -1.27)"/><path class="cls-1" d="M172.12,149.08v53.08c0,9.73-17.78,17.69-39.81,17.69s-39.81-8-39.81-17.69V149.08" transform="translate(0 -1.27)"/><ellipse class="cls-1" cx="104.24" cy="20.19" rx="39.81" ry="17.69"/><path class="cls-1" d="M144.05,48c0,9.78-17.83,17.7-39.81,17.7S64.43,57.78,64.43,48" transform="translate(0 -1.27)"/><path class="cls-1" d="M99.81,92.15c1.42.09,2.92.09,4.43.09,22,0,39.81-8,39.81-17.7" transform="translate(0 -1.27)"/><polyline class="cls-1" points="64.43 20.19 64.43 46.73 64.43 64.43"/><path class="cls-1" d="M99.81,118.69c1.42.09,2.92.09,4.43.09,22,0,39.81-8,39.81-17.7V21.46" transform="translate(0 -1.27)"/><line class="cls-1" x1="66.2" y1="105.12" x2="66.2" y2="105.03"/><ellipse class="cls-1" cx="42.31" cy="90.97" rx="39.81" ry="17.69"/><path class="cls-1" d="M82.12,118.78c0,9.77-17.82,17.69-39.81,17.69S2.5,128.55,2.5,118.78" transform="translate(0 -1.27)"/><path class="cls-1" d="M82.12,92.24v53.08c0,9.73-17.78,17.69-39.81,17.69s-39.81-8-39.81-17.69V92.24" transform="translate(0 -1.27)"/><path class="cls-2" d="M199.61,82.32a2.47,2.47,0,0,1-1.83-.49L194,78.55l8.6.25-1.49,2.69a1.45,1.45,0,0,1-.65.59,2.42,2.42,0,0,1-.85.24m-17.19-11c2-1.71,5.56-2.55,9.2-2.24l12.17.8c3,.15,5.53,1.09,6.88,2.59a4.14,4.14,0,0,1,.35,5.24l-3,5.59c-1,2.2-3.54,3.79-6.81,4.21a12,12,0,0,1-9-2.46l-8.84-7.45c-1.09-.91-1.21-2-.32-2.89a5.75,5.75,0,0,1,4.34-1.2l14.78.74a2.7,2.7,0,0,1,1.85.66,1,1,0,0,1,.15,1.35l-.24.39h-.22l-17.29-.7L195,83.19a7.13,7.13,0,0,0,5.25,1.43,5.17,5.17,0,0,0,4.14-2.41l3-5.31a2.49,2.49,0,0,0-.32-3.26,6.43,6.43,0,0,0-4.43-1.57l-14.84-.77a13.54,13.54,0,0,0-6.15.88,4.78,4.78,0,0,1,.81-.9M179,70c-2.81,2.43-2.5,5.64.71,8.32l9.67,8a16.73,16.73,0,0,0,12.52,3.45,13.83,13.83,0,0,0,5.29-1.77,9.57,9.57,0,0,0,3.88-4.17l3-5.63c1.5-2.49,1.39-5-.36-7s-5.06-3.22-9.19-3.43L192.26,67a24,24,0,0,0-9.12.91A12.29,12.29,0,0,0,179,70" transform="translate(0 -1.27)"/><path class="cls-2" d="M108.35,25.48a2.46,2.46,0,0,1-1.83-.5l-3.78-3.27,8.6.25-1.5,2.69a1.42,1.42,0,0,1-.64.59,2.65,2.65,0,0,1-.85.24m-17.2-11c2-1.71,5.57-2.55,9.2-2.24l12.18.8c3,.15,5.53,1.09,6.88,2.59a4.14,4.14,0,0,1,.35,5.23l-3,5.6c-1,2.19-3.53,3.79-6.81,4.2a12,12,0,0,1-9-2.45l-8.84-7.45c-1.09-.92-1.21-2-.32-2.89a5.69,5.69,0,0,1,4.34-1.2l14.78.74a2.72,2.72,0,0,1,1.85.66,1,1,0,0,1,.15,1.35l-.25.39h-.21l-17.29-.7,8.54,7.29A7.08,7.08,0,0,0,109,27.77a5.18,5.18,0,0,0,4.14-2.4l3-5.31a2.49,2.49,0,0,0-.32-3.26,6.43,6.43,0,0,0-4.44-1.57L96.5,14.46a13.41,13.41,0,0,0-6.15.88,5.07,5.07,0,0,1,.8-.9m-3.39-1.26c-2.8,2.43-2.5,5.63.72,8.32l9.66,8.05A16.84,16.84,0,0,0,110.67,33,14,14,0,0,0,116,31.23a9.57,9.57,0,0,0,3.88-4.17l3-5.64c1.5-2.49,1.39-5-.37-7s-5-3.22-9.19-3.43L101,10.13a23.79,23.79,0,0,0-9.12.91,12.16,12.16,0,0,0-4.12,2.14" transform="translate(0 -1.27)"/><path class="cls-2" d="M46.46,95.27a2.49,2.49,0,0,1-1.84-.5L40.84,91.5l8.6.25L48,94.44a1.45,1.45,0,0,1-.65.59,2.66,2.66,0,0,1-.84.24m-17.2-11c2-1.71,5.56-2.55,9.2-2.24l12.18.8c3,.15,5.52,1.09,6.87,2.59a4.14,4.14,0,0,1,.36,5.23l-3,5.6c-1,2.19-3.53,3.78-6.81,4.2a12,12,0,0,1-9-2.45l-8.84-7.45c-1.08-.92-1.21-2-.32-2.89a5.73,5.73,0,0,1,4.35-1.2L49,87.16a2.7,2.7,0,0,1,1.85.66A1,1,0,0,1,51,89.17l-.24.39h-.21l-17.29-.71,8.54,7.3a7.1,7.1,0,0,0,5.24,1.42,5.2,5.2,0,0,0,4.15-2.4l3-5.31a2.49,2.49,0,0,0-.32-3.26A6.43,6.43,0,0,0,49.44,85L34.6,84.25a13.45,13.45,0,0,0-6.15.88,4.49,4.49,0,0,1,.81-.9M25.87,83c-2.81,2.44-2.5,5.64.72,8.32l9.66,8a16.8,16.8,0,0,0,12.53,3.46A13.89,13.89,0,0,0,54.06,101,9.59,9.59,0,0,0,58,96.85l2.94-5.64c1.51-2.49,1.4-5-.36-7s-5.05-3.23-9.19-3.43L39.1,79.92a23.81,23.81,0,0,0-9.12.91A12.27,12.27,0,0,0,25.87,83" transform="translate(0 -1.27)"/><path class="cls-2" d="M135.41,153.21a2.42,2.42,0,0,1-1.83-.49l-3.78-3.27,8.59.25-1.49,2.69a1.48,1.48,0,0,1-.64.59,2.41,2.41,0,0,1-.85.23m-17.2-11c2-1.72,5.56-2.55,9.2-2.24l12.18.8c3,.15,5.53,1.08,6.88,2.59a4.14,4.14,0,0,1,.35,5.23l-3,5.6c-1,2.19-3.53,3.78-6.81,4.2a12,12,0,0,1-9-2.45l-8.84-7.45c-1.09-.92-1.21-2-.32-2.89a5.69,5.69,0,0,1,4.34-1.2l14.78.73a2.77,2.77,0,0,1,1.84.66,1,1,0,0,1,.16,1.36l-.25.38h-.21l-17.29-.7,8.54,7.3a7.17,7.17,0,0,0,5.25,1.42,5.18,5.18,0,0,0,4.14-2.4l3-5.31a2.48,2.48,0,0,0-.32-3.26,6.44,6.44,0,0,0-4.43-1.58l-14.84-.77a13.66,13.66,0,0,0-6.14.88,4.38,4.38,0,0,1,.8-.89m-3.39-1.27c-2.81,2.44-2.5,5.64.72,8.32l9.66,8.05a16.75,16.75,0,0,0,12.53,3.45A13.83,13.83,0,0,0,143,159a9.62,9.62,0,0,0,3.88-4.17l2.95-5.64c1.5-2.49,1.39-5-.37-7s-5-3.23-9.19-3.44l-12.23-.81a23.86,23.86,0,0,0-9.13.91,12.09,12.09,0,0,0-4.11,2.13" transform="translate(0 -1.27)"/></g></g></svg>