<svg width="23" height="24" viewBox="0 0 23 24" fill="none" xmlns="http://www.w3.org/2000/svg">
<path d="M22.8172 11.5417C22.826 5.21556 17.7347 0.0644297 11.409 0C5.06058 0.0542322 -0.044667 5.23967 0.000294716 11.5881C-0.0363236 17.9332 5.06382 23.114 11.409 23.1762C14.294 23.1785 17.0691 22.0683 19.1568 20.077C19.5777 19.6789 19.5962 19.0146 19.198 18.5933C18.8096 18.1826 18.1658 18.1534 17.7416 18.5275L17.7194 18.5497C14.0242 22.06 8.18287 21.9103 4.67214 18.2146C4.58778 18.1256 4.50528 18.0352 4.42462 17.9434L9.29764 10.1284V13.7439C9.29764 15.4733 9.97161 16.0347 10.5329 16.1918C11.0943 16.3489 11.9476 16.2381 12.8686 14.7771L15.5408 10.4427C15.6127 10.3162 15.6952 10.1957 15.7879 10.0835V12.2834C15.7879 13.9001 16.4391 15.2036 17.5623 15.8316C18.6172 16.4059 19.9031 16.3545 20.9084 15.6967C22.2466 14.778 22.9781 13.2035 22.8172 11.5881V11.5417ZM19.853 13.8561H19.8507C19.485 14.1059 19.0136 14.1402 18.6154 13.946C18.1662 13.6767 17.8965 13.0704 17.8965 12.2393V9.70154C17.8965 8.48896 17.4251 7.6129 16.6167 7.38856C15.2465 6.98437 14.2138 8.66881 13.8318 9.29735L11.409 13.1826V8.39904C11.3863 7.29864 11.027 6.64739 10.3531 6.44529C9.90393 6.3104 9.23043 6.37808 8.57918 7.36585L3.16662 16.0347C2.44584 14.6631 2.06807 13.1372 2.06668 11.5881C2.03609 6.39384 6.21475 2.15492 11.409 2.11088C16.6028 2.15492 20.7814 6.3943 20.7508 11.5881V11.6344C20.7963 12.6435 20.4815 13.4519 19.853 13.8561Z" fill="white"/>
</svg>
