<svg width="54" height="51" viewBox="0 0 54 51" fill="none" xmlns="http://www.w3.org/2000/svg">
<path d="M16.6719 6.51114C16.277 6.73576 15.8244 6.83823 15.3712 6.80559C14.9181 6.77295 14.4848 6.60666 14.1262 6.32775C13.7676 6.04884 13.4998 5.66985 13.3566 5.23871C13.2134 4.80757 13.2013 4.34364 13.3218 3.90561C13.4422 3.46758 13.6899 3.07513 14.0335 2.77788C14.3771 2.48063 14.8011 2.29195 15.2519 2.2357C15.7027 2.17944 16.16 2.25814 16.5661 2.46185C16.9722 2.66555 17.3087 2.9851 17.5331 3.38009C17.834 3.90954 17.9123 4.53679 17.7508 5.12393C17.5892 5.71108 17.2012 6.21005 16.6719 6.51114Z" stroke="#5D5FEF" strokeWidth="2" strokeMiterlimit="10"/>
<path d="M35.044 2.82489C29.35 0.776048 23.0891 0.974606 17.5364 3.38013" stroke="#5D5FEF" strokeWidth="2"/>
<path d="M5.59345 24.8337C5.59014 25.288 5.45222 25.731 5.19711 26.1069C4.942 26.4827 4.58117 26.7745 4.16025 26.9453C3.73933 27.116 3.27721 27.1582 2.83235 27.0663C2.38748 26.9745 1.97984 26.7528 1.66097 26.4293C1.34211 26.1057 1.12634 25.6949 1.04095 25.2488C0.955556 24.8026 1.00438 24.3412 1.18125 23.9228C1.35811 23.5043 1.65508 23.1478 2.03459 22.8982C2.4141 22.6485 2.85911 22.517 3.31335 22.5203C3.61496 22.5225 3.91319 22.5841 4.19102 22.7015C4.46884 22.8189 4.72081 22.99 4.93254 23.2048C5.14426 23.4196 5.31161 23.674 5.42501 23.9535C5.53841 24.233 5.59564 24.5321 5.59345 24.8337Z" stroke="#5D5FEF" strokeWidth="2" strokeMiterlimit="10"/>
<path d="M11.5867 7.07959C6.96479 10.9863 4.00606 16.5081 3.31323 22.5201" stroke="#5D5FEF" strokeWidth="2"/>
<path d="M15.922 43.5887C16.3137 43.8187 16.6284 44.1598 16.8263 44.5686C17.0241 44.9775 17.0964 45.4359 17.0337 45.8858C16.9711 46.3357 16.7765 46.7569 16.4745 47.0962C16.1725 47.4355 15.7767 47.6777 15.337 47.792C14.8974 47.9064 14.4338 47.8878 14.0047 47.7386C13.5757 47.5894 13.2005 47.3164 12.9266 46.954C12.6527 46.5916 12.4924 46.1562 12.466 45.7027C12.4396 45.2492 12.5483 44.7981 12.7783 44.4064C12.931 44.1462 13.1335 43.9188 13.3741 43.7369C13.6148 43.555 13.8889 43.4223 14.1808 43.3464C14.4727 43.2705 14.7767 43.2528 15.0755 43.2944C15.3742 43.336 15.6619 43.436 15.922 43.5887Z" stroke="#5D5FEF" strokeWidth="2" strokeMiterlimit="10"/>
<path d="M3.54297 29.5212C4.61518 35.4774 7.91789 40.8006 12.7782 44.4065" stroke="#5D5FEF" strokeWidth="2"/>
<path d="M37.3281 44.0218C37.723 43.7972 38.1757 43.6947 38.6288 43.7274C39.0819 43.76 39.5152 43.9263 39.8738 44.2052C40.2324 44.4841 40.5002 44.8631 40.6434 45.2943C40.7866 45.7254 40.7987 46.1893 40.6783 46.6274C40.5578 47.0654 40.3101 47.4578 39.9665 47.7551C39.6229 48.0523 39.199 48.241 38.7481 48.2973C38.2973 48.3535 37.84 48.2748 37.4339 48.0711C37.0278 47.8674 36.6913 47.5479 36.4669 47.1529C36.166 46.6234 36.0877 45.9962 36.2493 45.409C36.4108 44.8219 36.7988 44.3229 37.3281 44.0218Z" stroke="#5D5FEF" strokeWidth="2" strokeMiterlimit="10"/>
<path d="M18.9561 47.7086C24.6504 49.7579 30.9119 49.5591 36.4648 47.1528" stroke="#5D5FEF" strokeWidth="2"/>
<path d="M48.4066 25.7C48.4099 25.2457 48.5478 24.8027 48.8029 24.4268C49.058 24.051 49.4188 23.7592 49.8398 23.5884C50.2607 23.4176 50.7228 23.3755 51.1677 23.4674C51.6125 23.5592 52.0202 23.7809 52.339 24.1044C52.6579 24.428 52.8737 24.8388 52.9591 25.2849C53.0444 25.7311 52.9956 26.1925 52.8188 26.6109C52.6419 27.0293 52.3449 27.3859 51.9654 27.6355C51.5859 27.8852 51.1409 28.0167 50.6867 28.0134C50.385 28.0112 50.0868 27.9496 49.809 27.8322C49.5312 27.7147 49.2792 27.5437 49.0675 27.3289C48.8557 27.1141 48.6884 26.8597 48.575 26.5802C48.4616 26.3007 48.4044 26.0016 48.4066 25.7Z" stroke="#5D5FEF" strokeWidth="2" strokeMiterlimit="10"/>
<path d="M42.4133 43.4539C47.0351 39.5471 49.9938 34.0254 50.6868 28.0134" stroke="#5D5FEF" strokeWidth="2"/>
<path d="M38.078 6.94453C37.6864 6.71434 37.3718 6.37319 37.1741 5.96421C36.9763 5.55523 36.9043 5.0968 36.9671 4.6469C37.0299 4.19699 37.2248 3.77581 37.527 3.43663C37.8291 3.09745 38.2251 2.8555 38.6648 2.74138C39.1045 2.62726 39.5682 2.64609 39.9972 2.7955C40.4262 2.9449 40.8013 3.21817 41.0749 3.58074C41.3486 3.94331 41.5087 4.3789 41.5348 4.83242C41.5609 5.28594 41.4519 5.73702 41.2217 6.12861C40.913 6.65365 40.4084 7.03456 39.8188 7.18757C39.2293 7.34059 38.6031 7.25316 38.078 6.94453V6.94453Z" stroke="#5D5FEF" strokeWidth="2" strokeMiterlimit="10"/>
<path d="M50.4569 21.0119C49.384 15.0566 46.0814 9.73434 41.2217 6.12891" stroke="#5D5FEF" strokeWidth="2"/>
<path d="M27 23.7012C29.1665 23.7012 30.9229 21.9449 30.9229 19.7783C30.9229 17.6118 29.1665 15.8555 27 15.8555C24.8335 15.8555 23.0771 17.6118 23.0771 19.7783C23.0771 21.9449 24.8335 23.7012 27 23.7012Z" stroke="#5D5FEF" strokeWidth="2"/>
<path d="M18.5488 32.5194C18.9777 27.5705 22.6009 23.6987 26.9997 23.6987C31.3986 23.6987 35.0223 27.5705 35.4512 32.5194C32.8692 33.9602 29.9564 34.7039 26.9997 34.6772C24.0432 34.7038 21.1307 33.9601 18.5488 32.5194V32.5194Z" stroke="#5D5FEF" strokeWidth="2"/>
<path d="M17.527 19.1255C18.0333 19.1255 18.5282 19.2756 18.9491 19.5569C19.3701 19.8381 19.6982 20.2379 19.8919 20.7057C20.0856 21.1734 20.1363 21.6881 20.0376 22.1846C19.9388 22.6811 19.695 23.1372 19.337 23.4952C18.979 23.8532 18.5229 24.097 18.0264 24.1958C17.5299 24.2945 17.0152 24.2438 16.5474 24.0501C16.0797 23.8564 15.6799 23.5283 15.3987 23.1073C15.1174 22.6864 14.9673 22.1915 14.9673 21.6852C14.9674 21.0064 15.2372 20.3554 15.7172 19.8754C16.1972 19.3954 16.8482 19.1256 17.527 19.1255V19.1255Z" stroke="#5D5FEF" strokeWidth="2"/>
<path d="M36.4733 19.1255C35.967 19.1255 35.4721 19.2756 35.0512 19.5569C34.6303 19.8381 34.3022 20.2379 34.1084 20.7057C33.9147 21.1734 33.864 21.6881 33.9628 22.1846C34.0615 22.6811 34.3053 23.1372 34.6633 23.4952C35.0213 23.8532 35.4774 24.097 35.9739 24.1958C36.4705 24.2945 36.9851 24.2438 37.4529 24.0501C37.9206 23.8564 38.3204 23.5283 38.6016 23.1073C38.8829 22.6864 39.033 22.1915 39.033 21.6852C39.0329 21.0064 38.7632 20.3554 38.2831 19.8754C37.8031 19.3954 37.1521 19.1256 36.4733 19.1255V19.1255Z" stroke="#5D5FEF" strokeWidth="2"/>
<path d="M18.9422 31.3249C18.4725 31.3803 17.9999 31.4081 17.5269 31.4081C15.5983 31.425 13.6986 30.9396 12.0146 29.9996C12.2943 26.7704 14.6559 24.2451 17.5269 24.2451C18.3674 24.2613 19.1919 24.4782 19.9317 24.8777C20.6714 25.2772 21.3049 25.8478 21.7793 26.5419" stroke="#5D5FEF" strokeWidth="2"/>
<path d="M35.0579 31.3249C35.5276 31.3803 36.0002 31.4081 36.4732 31.4081C38.4017 31.425 40.3014 30.9396 41.9854 29.9996C41.7058 26.7704 39.3442 24.2451 36.4732 24.2451C35.6326 24.2613 34.808 24.4783 34.0682 24.8778C33.3284 25.2773 32.6948 25.8478 32.2202 26.5419" stroke="#5D5FEF" strokeWidth="2"/>
</svg>
