<svg width="68" height="62" viewBox="0 0 68 62" fill="none" xmlns="http://www.w3.org/2000/svg">
<g clip-path="url(#clip0_382_563)">
<path d="M66.0989 23.377L63.3609 28.811L59.3989 24.193L66.0989 23.377Z" stroke="#5D5FEF" strokeWidth="1.5" strokeMiterlimit="10" strokeLinecap="round"/>
<path d="M1.30005 37.7787L4.03905 32.3447L8.00105 36.9627L1.30005 37.7787Z" stroke="#5D5FEF" strokeWidth="1.5" strokeMiterlimit="10" strokeLinecap="round"/>
<path d="M54.8 51.6729C51.0399 55.4335 46.3429 58.1206 41.1954 59.4559C36.0479 60.7913 30.637 60.7265 25.523 59.2681C20.409 57.8096 15.7778 55.0107 12.1089 51.1611C8.44007 47.3115 5.86695 42.5511 4.65601 37.3729M12.6 9.4819C16.3602 5.7214 21.0573 3.03436 26.2048 1.699C31.3524 0.363651 36.7633 0.42853 41.8774 1.88692C46.9914 3.34531 51.6227 6.1442 55.2917 9.99379C58.9606 13.8434 61.5339 18.6037 62.745 23.7819" stroke="#5D5FEF" strokeWidth="1.5" strokeLinecap="round" strokeLinejoin="round"/>
<path d="M34.023 44.6806C41.7677 44.6806 48.046 38.3665 48.046 30.5776C48.046 22.7887 41.7677 16.4746 34.023 16.4746C26.2783 16.4746 20 22.7887 20 30.5776C20 38.3665 26.2783 44.6806 34.023 44.6806Z" stroke="#5D5FEF" strokeWidth="1.5" strokeMiterlimit="1.5" strokeLinecap="square"/>
<path d="M32.65 40.58C31.5639 40.5774 30.4947 40.3104 29.535 39.802C28.4737 39.2627 27.5835 38.4386 26.9641 37.422C26.3447 36.4054 26.0206 35.2364 26.028 34.046V26.734C26.0238 25.5483 26.3664 24.3873 27.0137 23.3939C27.661 22.4005 28.5846 21.6181 29.671 21.143C30.7565 20.6447 31.9622 20.4686 33.1449 20.6354C34.3276 20.8022 35.4376 21.305 36.343 22.084L40.968 26.029C41.7634 26.7141 42.3889 27.5745 42.7953 28.5424C43.2018 29.5103 43.378 30.5593 43.3101 31.6069C43.2423 32.6545 42.9322 33.672 42.4043 34.5794C41.8764 35.4868 41.1451 36.2592 40.268 36.836L36.336 39.45C35.2461 40.183 33.9633 40.5762 32.65 40.58ZM27.85 27.137V34.046C27.8445 34.9076 28.079 35.7537 28.5273 36.4895C28.9756 37.2253 29.6198 37.8217 30.388 38.212C31.1543 38.6218 32.018 38.8146 32.8859 38.7697C33.7538 38.7248 34.593 38.4438 35.313 37.957L39.242 35.342C39.8873 34.9172 40.4254 34.3486 40.8141 33.6809C41.2027 33.0132 41.4314 32.2645 41.482 31.4936C41.5327 30.7226 41.404 29.9504 41.1061 29.2376C40.8082 28.5247 40.3491 27.8906 39.765 27.385L35.148 23.446C34.5075 22.8952 33.7224 22.5398 32.8859 22.4219C32.0494 22.3041 31.1967 22.4287 30.429 22.781C30.1702 22.8976 29.9228 23.0378 29.69 23.2C30.7243 23.1108 31.753 23.4259 32.56 24.079L38.26 28.668C38.6333 28.9671 38.9307 29.3503 39.1276 29.7863C39.3245 30.2223 39.4155 30.6987 39.3931 31.1766C39.3707 31.6545 39.2355 32.1203 38.9985 32.5359C38.7616 32.9515 38.4297 33.3052 38.03 33.568L34.265 36.068C33.8391 36.3503 33.3452 36.5128 32.835 36.5385C32.3247 36.5642 31.817 36.4521 31.365 36.214C30.9143 35.9816 30.5361 35.63 30.2716 35.1975C30.0071 34.7649 29.8664 34.268 29.865 33.761V26.838L36.637 32.19C36.666 32.2134 36.6937 32.2385 36.72 32.265L37.004 32.077C37.1684 31.9692 37.305 31.824 37.4025 31.6532C37.5 31.4824 37.5556 31.2909 37.5648 31.0945C37.574 30.8981 37.5365 30.7022 37.4553 30.5231C37.3742 30.344 37.2517 30.1866 37.098 30.064L31.398 25.475C31.0799 25.213 30.6934 25.0479 30.2843 24.9991C29.8751 24.9504 29.4606 25.0201 29.09 25.2C28.7167 25.3668 28.4003 25.639 28.1795 25.9831C27.9587 26.3271 27.8431 26.7282 27.847 27.137H27.85ZM31.703 30.59V33.762C31.7016 33.9407 31.7502 34.1162 31.8431 34.2688C31.936 34.4214 32.0696 34.5451 32.229 34.626C32.3875 34.7112 32.5664 34.7514 32.7462 34.7422C32.926 34.733 33.0998 34.6749 33.249 34.574L35.149 33.314L31.703 30.59Z" fill="#5D5FEF"/>
</g>
<defs>
<clipPath id="clip0_382_563">
<rect width="67.4" height="61.155" fill="white"/>
</clipPath>
</defs>
</svg>
