<svg width="61" height="78" viewBox="0 0 61 78" fill="none" xmlns="http://www.w3.org/2000/svg">
<g clip-path="url(#clip0_382_566)">
<path d="M45.3262 38.1C45.3128 40.4065 44.6165 42.6574 43.3253 44.5687C42.0341 46.48 40.2057 47.9661 38.0709 48.8395C35.9361 49.7129 33.5904 49.9345 31.3298 49.4763C29.0691 49.018 26.9949 47.9006 25.3686 46.2649C23.7423 44.6291 22.6369 42.5484 22.1919 40.2852C21.7468 38.0219 21.982 35.6776 22.8677 33.5478C23.7535 31.4181 25.2502 29.5984 27.1689 28.3183C29.0877 27.0382 31.3426 26.355 33.6492 26.355C36.7548 26.3653 39.7292 27.6082 41.9187 29.8105C44.1083 32.0129 45.3339 34.9944 45.3262 38.1V38.1Z" stroke="#5D5FEF" strokeWidth="1.5" stroke-miterlimit="1.5" strokeLinecap="square"/>
<path d="M32.506 46.4269C31.6016 46.4246 30.7113 46.2022 29.912 45.7789C29.0285 45.3299 28.2874 44.6438 27.7717 43.7975C27.256 42.9511 26.986 41.9779 26.992 40.9869V34.8999C26.9885 33.9125 27.2739 32.9456 27.813 32.1183C28.3521 31.291 29.1213 30.6395 30.026 30.2439C30.93 29.8298 31.9338 29.6836 32.9183 29.8225C33.9029 29.9615 34.827 30.3798 35.581 31.0279L39.432 34.3119C40.0943 34.8826 40.6151 35.5992 40.9534 36.4054C41.2917 37.2115 41.4382 38.0852 41.3815 38.9576C41.3248 39.83 41.0664 40.6774 40.6266 41.433C40.1868 42.1885 39.5776 42.8317 38.847 43.3119L35.575 45.4889C34.6678 46.0995 33.5996 46.427 32.506 46.4299V46.4269ZM28.513 35.2329V40.9869C28.5084 41.7043 28.7038 42.4088 29.0772 43.0213C29.4506 43.6339 29.9873 44.1303 30.627 44.4549C31.265 44.7962 31.984 44.9569 32.7065 44.9195C33.4291 44.8821 34.1277 44.6482 34.727 44.2429L38 42.0649C38.5378 41.7116 38.9863 41.2383 39.3102 40.6823C39.6342 40.1263 39.8247 39.5028 39.8669 38.8607C39.909 38.2186 39.8017 37.5755 39.5532 36.9819C39.3048 36.3883 38.922 35.8605 38.435 35.4399L34.59 32.1599C34.0568 31.7013 33.4031 31.4054 32.7066 31.3074C32.0101 31.2094 31.3002 31.3133 30.661 31.6069C30.4457 31.7036 30.2398 31.8201 30.046 31.9549C30.9073 31.8811 31.7638 32.1434 32.436 32.6869L37.184 36.5079C37.4957 36.7569 37.7439 37.0761 37.9084 37.4395C38.0729 37.8029 38.1489 38.2002 38.1303 38.5986C38.1116 38.9971 37.9989 39.3854 37.8012 39.7319C37.6035 40.0784 37.3266 40.3731 36.993 40.5919L33.858 42.6709C33.5035 42.9056 33.0924 43.0408 32.6677 43.0623C32.2431 43.0837 31.8204 42.9907 31.444 42.7929C31.0698 42.5985 30.756 42.3053 30.5367 41.9451C30.3174 41.5849 30.201 41.1716 30.2 40.7499V34.9839L35.839 39.4409C35.8634 39.46 35.8865 39.4807 35.908 39.5029L36.145 39.3469C36.2819 39.257 36.3956 39.1359 36.4767 38.9936C36.5578 38.8514 36.6041 38.6919 36.6117 38.5283C36.6193 38.3647 36.588 38.2016 36.5205 38.0524C36.4529 37.9032 36.351 37.7721 36.223 37.6699L31.47 33.8499C31.2054 33.6314 30.8835 33.4936 30.5428 33.4529C30.2021 33.4121 29.8568 33.4701 29.548 33.6199C29.2373 33.7588 28.9738 33.9855 28.7899 34.272C28.6061 34.5585 28.5099 34.8925 28.513 35.2329ZM31.713 38.1089V40.7499C31.712 40.8986 31.7524 41.0447 31.8298 41.1717C31.9072 41.2987 32.0184 41.4016 32.151 41.4689C32.2831 41.5402 32.4322 41.5739 32.5821 41.5663C32.7319 41.5587 32.8769 41.5101 33.001 41.4259L34.582 40.3769L31.713 38.1089Z" fill="#5D5FEF"/>
<path d="M13.3931 52.326C13.2931 52.105 12.4631 50.654 12.3761 50.426C11.6948 48.6432 11.4274 46.729 11.594 44.8278C11.7607 42.9266 12.357 41.088 13.3381 39.451L27.4631 16.5H39.8361L53.9611 39.454C55.3776 41.8025 55.981 44.5522 55.6781 47.278" stroke="#5D5FEF" strokeWidth="1.5" strokeLinecap="round" strokeLinejoin="round"/>
<path d="M39.8172 11.8311H27.4822V16.4991H39.8172V11.8311Z" stroke="#5D5FEF" strokeWidth="1.5" strokeLinecap="round" strokeLinejoin="round"/>
<path d="M27.4671 11.831C27.4671 11.831 24.8441 8.38203 23.0881 6.07103C22.6421 5.48497 22.4 4.76905 22.3989 4.03254C22.3978 3.29604 22.6378 2.57941 23.0821 1.99203V1.99203C23.5125 1.4221 24.1251 1.01678 24.818 0.843567C25.5109 0.670351 26.2422 0.739688 26.8901 1.04003L31.5511 3.20003C32.209 3.50582 32.9257 3.66425 33.6511 3.66425C34.3766 3.66425 35.0933 3.50582 35.7511 3.20003L40.4091 1.04003C41.057 0.739582 41.7882 0.670088 42.481 0.84312C43.1739 1.01615 43.7866 1.42127 44.2171 1.99103V1.99103C44.661 2.57861 44.9006 3.29516 44.8995 4.03154C44.8985 4.76792 44.6567 5.48377 44.2111 6.07003L39.8311 11.83L27.4671 11.831Z" stroke="#5D5FEF" strokeWidth="1.5" strokeLinecap="round" strokeLinejoin="round"/>
<path d="M10.323 58.217L17.823 54.067C19.4571 53.1628 21.3118 52.7343 23.177 52.83L27.577 53.055C28.71 53.1128 29.8168 53.4172 30.82 53.947C32.2139 54.6821 33.7337 55.1482 35.3 55.321L40.678 55.911C41.0332 55.9508 41.3769 56.0607 41.6893 56.2343C42.0017 56.4079 42.2766 56.6418 42.4979 56.9225C42.7192 57.2031 42.8825 57.5249 42.9785 57.8692C43.0745 58.2135 43.1012 58.5734 43.057 58.928V58.928C42.9634 59.6672 42.5923 60.3431 42.0189 60.8188C41.4455 61.2946 40.7127 61.5345 39.969 61.49L28.94 60.829" stroke="#5D5FEF" strokeWidth="1.5" strokeLinecap="round" strokeLinejoin="round"/>
<path d="M43.0161 59.6681L46.5161 58.7291C48.762 58.125 50.6868 56.675 51.8871 54.6831L53.3561 52.2461C53.7921 51.5225 54.4161 50.9306 55.1616 50.5334C55.9071 50.1361 56.7464 49.9484 57.5901 49.9901V49.9901C57.9005 50.0058 58.2022 50.0973 58.4689 50.2568C58.7357 50.4162 58.9592 50.6386 59.12 50.9045C59.2808 51.1704 59.3739 51.4717 59.3912 51.7819C59.4085 52.0922 59.3494 52.4019 59.2191 52.6841L55.7571 60.1401C54.7851 62.238 53.1161 63.9342 51.0341 64.9401L41.8881 69.3581C39.3583 70.58 36.5362 71.0671 33.7431 70.7641L19.4431 69.2101L17.1501 70.2191" stroke="#5D5FEF" strokeWidth="1.5" strokeLinecap="round" strokeLinejoin="round"/>
<path d="M7.01391 58.0252L0.749023 61.6421L9.35126 76.5422L15.6162 72.9253L7.01391 58.0252Z" stroke="#5D5FEF" strokeWidth="1.5" strokeLinecap="round" strokeLinejoin="round"/>
</g>
<defs>
<clipPath id="clip0_382_566">
<rect width="60.14" height="77.292" fill="white"/>
</clipPath>
</defs>
</svg>
