<svg width="75" height="59" viewBox="0 0 75 59" fill="none" xmlns="http://www.w3.org/2000/svg">
<g clip-path="url(#clip0_370_112)">
<path d="M25.4221 52.4038C31.669 52.4038 36.7331 47.311 36.7331 41.0288C36.7331 34.7466 31.669 29.6538 25.4221 29.6538C19.1752 29.6538 14.1111 34.7466 14.1111 41.0288C14.1111 47.311 19.1752 52.4038 25.4221 52.4038Z" stroke="#5D5FEF" strokeWidth="1.5" stroke-miterlimit="1.5" ststrokeLinecap="square"/>
<path d="M24.314 49.0999C23.4381 49.0974 22.576 48.8819 21.802 48.4719C20.9461 48.037 20.2281 47.3724 19.7284 46.5526C19.2288 45.7327 18.9672 44.79 18.973 43.8299V37.9299C18.9692 36.9734 19.2454 36.0366 19.7677 35.2352C20.29 34.4338 21.0354 33.8027 21.912 33.4199C22.7875 33.0182 23.7599 32.8762 24.7137 33.0108C25.6676 33.1453 26.5627 33.5507 27.293 34.1789L31.024 37.3609C31.6651 37.9138 32.1692 38.6079 32.4966 39.3886C32.824 40.1693 32.9659 41.0153 32.9109 41.8601C32.8559 42.7049 32.6057 43.5254 32.1799 44.2571C31.7541 44.9888 31.1643 45.6118 30.457 46.0769L27.287 48.1859C26.4081 48.7775 25.3734 49.0949 24.314 49.0979V49.0999ZM20.447 38.2539V43.8269C20.4426 44.5217 20.6318 45.2039 20.9934 45.7972C21.3549 46.3904 21.8745 46.8713 22.494 47.1859C23.1111 47.5169 23.8069 47.6732 24.5063 47.6379C25.2057 47.6027 25.8822 47.3773 26.463 46.9859L29.632 44.8759C30.153 44.5337 30.5875 44.0752 30.9014 43.5367C31.2153 42.9981 31.3999 42.394 31.4408 41.772C31.4817 41.1499 31.3778 40.5269 31.1371 39.9519C30.8965 39.3768 30.5257 38.8654 30.054 38.4579L26.33 35.2769C25.8134 34.8327 25.1803 34.546 24.5057 34.4508C23.8311 34.3556 23.1433 34.456 22.524 34.7399C22.314 34.8338 22.1131 34.947 21.924 35.0779C22.7583 35.006 23.588 35.2601 24.239 35.7869L28.839 39.4869C29.141 39.728 29.3817 40.0372 29.5411 40.3892C29.7005 40.7413 29.7742 41.1261 29.7562 41.5121C29.7381 41.8982 29.6288 42.2744 29.4372 42.61C29.2456 42.9457 28.9772 43.2311 28.654 43.4429L25.62 45.4579C25.2766 45.6852 24.8785 45.8162 24.4673 45.8371C24.056 45.8581 23.6467 45.7682 23.282 45.5769C22.9193 45.3885 22.6151 45.1044 22.4025 44.7553C22.1899 44.4063 22.077 44.0056 22.076 43.5969V38.0119L27.538 42.3299C27.5618 42.3483 27.5845 42.3679 27.606 42.3889L27.834 42.2379C27.9674 42.1515 28.0782 42.0345 28.1574 41.8967C28.2365 41.7589 28.2817 41.6042 28.2891 41.4454C28.2965 41.2867 28.266 41.1284 28.2001 40.9838C28.1342 40.8392 28.0347 40.7124 27.91 40.6139L23.31 36.9139C23.0534 36.7026 22.7416 36.5694 22.4115 36.5301C22.0815 36.4907 21.7471 36.5469 21.448 36.6919C21.1473 36.8269 20.8926 37.0467 20.715 37.3243C20.5373 37.6019 20.4446 37.9254 20.448 38.2549L20.447 38.2539ZM23.548 41.0399V43.5999C23.5465 43.7446 23.5855 43.8868 23.6606 44.0105C23.7357 44.1342 23.8439 44.2345 23.973 44.2999C24.101 44.3684 24.2452 44.4007 24.3902 44.3935C24.5352 44.3863 24.6754 44.3398 24.796 44.2589L26.328 43.2419L23.548 41.0399Z" fill="#5D5FEF"/>
<path d="M32.3291 18.3271L48.1001 40.7671C49.2565 42.4132 49.9389 44.3452 50.0728 46.3525C50.2068 48.3597 49.7871 50.3652 48.8597 52.1504C47.9323 53.9355 46.5326 55.4318 44.8132 56.4762C43.0938 57.5206 41.1208 58.073 39.1091 58.0732H11.7381C9.7263 58.0732 7.75314 57.5209 6.0337 56.4765C4.31427 55.4321 2.91456 53.9357 1.98716 52.1504C1.05977 50.3652 0.640295 48.3596 0.774469 46.3523C0.908644 44.345 1.59132 42.4131 2.74806 40.7671L18.5161 18.3271H32.3291Z" stroke="#5D5FEF" strokeWidth="1.5" ststrokeLinecap="round" strokeLinejoin="round"/>
<path d="M32.3071 13.1172H18.5371V18.3272H32.3071V13.1172Z" stroke="#5D5FEF" strokeWidth="1.5" ststrokeLinecap="round" strokeLinejoin="round"/>
<path d="M18.5201 13.116L13.6201 6.67503C13.1247 6.02372 12.8561 5.22829 12.855 4.41004C12.8539 3.59179 13.1205 2.79565 13.6141 2.14303V2.14303C14.0965 1.50312 14.7839 1.04815 15.5614 0.85413C16.339 0.660109 17.1595 0.738791 17.8861 1.07703L23.3241 3.60003C23.9821 3.90529 24.6987 4.06343 25.4241 4.06343C26.1494 4.06343 26.8661 3.90529 27.5241 3.60003L32.9591 1.07803C33.6857 0.740732 34.506 0.662554 35.2833 0.856517C36.0606 1.05048 36.748 1.50488 37.2311 2.14403V2.14403C37.7245 2.79676 37.9909 3.59296 37.9896 4.41121C37.9884 5.22945 37.7195 6.02483 37.2241 6.67603L32.3241 13.117L18.5201 13.116Z" stroke="#5D5FEF" strokeWidth="1.5" ststrokeLinecap="round" strokeLinejoin="round"/>
<path d="M73.3771 29.073C73.3772 28.8004 73.3236 28.5305 73.2192 28.2786C73.1148 28.0268 72.9617 27.798 72.7688 27.6055C72.5759 27.4129 72.3468 27.2603 72.0948 27.1564C71.8427 27.0525 71.5727 26.9993 71.3001 27H56.2361C55.9638 26.9999 55.6942 27.0534 55.4426 27.1575C55.1911 27.2617 54.9625 27.4144 54.77 27.6069C54.5774 27.7994 54.4247 28.028 54.3206 28.2795C54.2165 28.5311 54.163 28.8007 54.1631 29.073V40.754C54.163 41.0263 54.2165 41.2959 54.3206 41.5475C54.4247 41.799 54.5774 42.0276 54.77 42.2201C54.9625 42.4127 55.1911 42.5653 55.4426 42.6695C55.6942 42.7736 55.9638 42.8271 56.2361 42.827H71.3001C71.5724 42.8271 71.842 42.7736 72.0935 42.6695C72.3451 42.5653 72.5737 42.4127 72.7662 42.2201C72.9587 42.0276 73.1114 41.799 73.2156 41.5475C73.3197 41.2959 73.3732 41.0263 73.3731 40.754L73.3771 29.073Z" stroke="#5D5FEF" strokeWidth="1.5" ststrokeLinecap="round" strokeLinejoin="round"/>
<path d="M48.262 21.649C48.262 20.2781 48.8066 18.9633 49.7759 17.9939C50.7453 17.0246 52.0601 16.48 53.431 16.48V16.48C54.1098 16.48 54.7819 16.6137 55.4091 16.8734C56.0362 17.1332 56.606 17.514 57.086 17.9939C57.566 18.4739 57.9467 19.0438 58.2065 19.6709C58.4663 20.298 58.6 20.9702 58.6 21.649V27" stroke="#5D5FEF" strokeWidth="1.5" ststrokeLinecap="round" strokeLinejoin="round"/>
<path d="M63.7701 31.4751C64.2448 31.4751 64.7088 31.6159 65.1035 31.8796C65.4982 32.1433 65.8058 32.5181 65.9874 32.9567C66.1691 33.3952 66.2166 33.8778 66.124 34.3433C66.0314 34.8089 65.8028 35.2365 65.4672 35.5722C65.1315 35.9078 64.7039 36.1364 64.2383 36.229C63.7728 36.3216 63.2902 36.2741 62.8517 36.0924C62.4131 35.9108 62.0383 35.6031 61.7746 35.2085C61.5109 34.8138 61.3701 34.3498 61.3701 33.8751C61.3701 33.2386 61.623 32.6281 62.0731 32.178C62.5232 31.728 63.1336 31.4751 63.7701 31.4751V31.4751Z" stroke="#5D5FEF" strokeWidth="1.5" ststrokeLinecap="round" strokeLinejoin="round"/>
<path d="M63.77 36.2803V38.5193" stroke="#5D5FEF" strokeWidth="1.5" ststrokeLinecap="round" strokeLinejoin="round"/>
</g>
<defs>
<clipPath id="clip0_370_112">
<rect width="74.127" height="58.823" fill="white"/>
</clipPath>
</defs>
</svg>
