<svg width="15" height="18" viewBox="0 0 15 18" fill="none" xmlns="http://www.w3.org/2000/svg">
<g clip-path="url(#clip0_231_381)">
<path d="M10.4592 0C10.4997 0.0176091 10.5401 0.0352181 10.5805 0.0528272C10.951 0.204265 11.1599 0.581099 11.0959 0.993152C11.0353 1.38055 10.7051 1.67991 10.3144 1.68343C9.80912 1.69047 9.30721 1.68695 8.80193 1.68695C6.80103 1.68695 4.80014 1.68695 2.79924 1.68695C2.05816 1.68695 1.61352 2.14831 1.61352 2.91958C1.61352 6.97319 1.61352 11.0268 1.61352 15.0804C1.61352 15.8517 2.05816 16.313 2.79924 16.313C5.28857 16.313 7.77454 16.313 10.2639 16.313C10.85 16.313 11.2441 16.8624 11.0656 17.4224C10.9578 17.7605 10.6647 17.9929 10.3178 18C10.0112 18.007 9.70133 18.0035 9.39142 18.0035C7.1682 18.0035 4.94161 18.007 2.71839 18.0035C1.39457 17.9965 0.313272 17.0702 0.0538963 15.7108C0.0168426 15.5101 0.00336852 15.3023 0.00336852 15.1015C0 11.0374 0 6.96967 0 2.9055C0 1.40168 0.909499 0.278223 2.32764 0.0281745C2.34786 0.0246527 2.36807 0.0105654 2.38828 0C5.07635 0 7.7678 0 10.4592 0Z" fill="white"/>
<path d="M12.2311 9.84348C12.1267 9.84348 12.0661 9.84348 12.0021 9.84348C9.97759 9.84348 7.95648 9.84348 5.932 9.84348C5.5143 9.84348 5.20103 9.60399 5.10335 9.21659C4.97197 8.69536 5.3324 8.18118 5.85116 8.16005C6.01958 8.153 6.18801 8.15653 6.35643 8.15653C8.23943 8.15653 10.1224 8.15653 12.0054 8.15653C12.0661 8.15653 12.1267 8.15653 12.2278 8.15653C12.1638 8.08609 12.1267 8.04031 12.0863 7.99804C11.3216 7.19859 10.5536 6.40266 9.79232 5.59969C9.33083 5.11015 9.52621 4.32831 10.146 4.16631C10.4391 4.08883 10.7018 4.16983 10.9174 4.39523C11.1835 4.66993 11.4496 4.94815 11.7157 5.22637C12.7027 6.25827 13.6897 7.29016 14.6767 8.32205C15.1011 8.7658 15.1011 9.2342 14.6733 9.68147C13.4438 10.9705 12.2109 12.2559 10.9814 13.5484C10.7557 13.7844 10.4963 13.9077 10.1797 13.8337C9.87653 13.7633 9.67105 13.566 9.58347 13.2526C9.49252 12.9251 9.57 12.6398 9.79906 12.4003C10.5603 11.6044 11.3216 10.8085 12.0795 10.0125C12.1233 9.96674 12.1638 9.92096 12.2311 9.84348Z" fill="white"/>
</g>
<defs>
<clipPath id="clip0_231_381">
<rect width="15" height="18" fill="white"/>
</clipPath>
</defs>
</svg>
