<svg width="30" height="24" viewBox="0 0 30 24" fill="none" xmlns="http://www.w3.org/2000/svg">
<path d="M29.3991 3.73236C29.3991 9.24113 29.3991 14.7556 29.3991 20.2643C29.3822 20.2984 29.3596 20.3324 29.354 20.3665C29.1512 22.1649 27.5679 23.9974 25.1056 23.9917C18.3668 23.9803 11.628 23.9917 4.88924 23.9803C4.39904 23.9803 3.89194 23.9066 3.42992 23.7534C1.69451 23.1691 0.612694 21.6089 0.607059 19.7424C0.601425 16.5994 0.607059 13.4564 0.607059 10.3134C0.607059 8.28234 0.59579 6.25697 0.607059 4.22593C0.618328 1.97931 2.25232 0.180876 4.47229 0.0447171C5.70623 -0.0290357 6.94581 0.0106773 8.17975 0.0106773C13.8142 0.0106773 19.443 0.00500401 25.0774 0.0106773C26.8974 0.0106773 28.2384 0.833305 29.0272 2.49558C29.2075 2.88136 29.2751 3.31821 29.3991 3.73236ZM27.7144 7.81713C27.7256 7.73203 27.7313 7.6753 27.7313 7.62424C27.7313 6.51227 27.7369 5.39463 27.7313 4.28267C27.7313 4.05574 27.7087 3.8288 27.6524 3.61322C27.3312 2.39913 26.3903 1.69565 25.1 1.69565C18.3725 1.69565 11.6393 1.69565 4.91177 1.69565C3.33413 1.69565 2.26922 2.74521 2.26922 4.32805C2.25795 9.44536 2.25795 14.557 2.27485 19.6743C2.27485 20.0828 2.35937 20.531 2.53404 20.8997C3.0017 21.8926 3.84686 22.3181 4.92868 22.3181C11.6393 22.3124 18.3499 22.3181 25.0605 22.3181C25.2014 22.3181 25.3423 22.3181 25.4831 22.301C26.7002 22.1706 27.6524 21.2174 27.7031 19.992C27.7538 18.7836 27.7256 17.5752 27.7313 16.3668C27.7313 16.3157 27.7144 16.259 27.7031 16.1909C27.5735 16.1909 27.4665 16.1909 27.3538 16.1909C25.4719 16.1909 23.5843 16.2023 21.7024 16.1909C18.9979 16.1682 17.0653 13.8025 17.578 11.17C17.9611 9.21843 19.6627 7.83415 21.7193 7.8228C23.6012 7.81146 25.4888 7.8228 27.3707 7.8228C27.4834 7.81713 27.596 7.81713 27.7144 7.81713ZM27.72 9.49642C26.9481 9.49642 26.21 9.49642 25.4719 9.49642C24.1252 9.5021 22.773 9.4794 21.4263 9.51912C20.3389 9.55316 19.3867 10.4609 19.2007 11.5388C18.9246 13.1444 20.0741 14.4889 21.7475 14.5003C23.6576 14.5116 25.5676 14.5003 27.4777 14.5003C27.5566 14.5003 27.6355 14.4889 27.72 14.4832C27.72 12.8153 27.72 11.1757 27.72 9.49642Z" fill="white"/>
<path d="M22.2039 11.1644C22.3842 11.1644 22.5589 11.1587 22.7392 11.1644C23.235 11.1927 23.5844 11.5502 23.5844 12.0097C23.5787 12.4636 23.235 12.8153 22.7561 12.838C22.3842 12.855 22.0067 12.855 21.6349 12.838C21.1559 12.8153 20.8179 12.4465 20.8179 11.9984C20.8235 11.5445 21.1672 11.1984 21.6461 11.1701C21.8321 11.153 22.018 11.1644 22.2039 11.1644Z" fill="white"/>
</svg>
