<svg width="24" height="24" viewBox="0 0 24 24" fill="none" xmlns="http://www.w3.org/2000/svg">
<path d="M18.4417 8.06455L19.2995 3.61514C19.3471 3.42975 19.3471 3.29071 19.3471 3.10531C19.3471 1.43679 17.9652 0.046348 16.2497 0C14.5342 0 13.1046 1.34409 13.0569 3.01262V6.7668C12.628 6.72046 12.1992 6.72046 11.7703 6.72046C11.3414 6.72046 10.8649 6.72046 10.436 6.7668V3.05897C10.436 2.87357 10.436 2.68818 10.3884 2.54914C10.1024 0.880612 8.43458 -0.23174 6.71907 0.092696C5.00356 0.370784 3.85989 1.99296 4.19346 3.66149L5.05122 8.1109C2.19204 9.31594 0 11.448 0 14.1825V15.8047C0 18.0294 1.5249 19.8833 3.62163 21.1347C6.09958 22.5251 8.91111 23.2203 11.7703 23.174C14.6295 23.2203 17.441 22.5251 19.9189 21.1347C22.0157 19.8833 23.5406 18.0294 23.5406 15.8047V14.1825C23.5882 11.448 21.3962 9.31594 18.4417 8.06455ZM22.6352 15.8047C22.6352 19.3735 17.7746 22.247 11.8179 22.247C5.86132 22.247 0.95306 19.3735 0.95306 15.8047V14.1825C0.95306 11.8651 3.04979 9.82577 6.14723 8.66707L5.19418 3.42975C5.14652 3.29071 5.14652 3.15166 5.14652 3.05897C5.14652 1.90027 6.09958 0.92696 7.33856 0.92696C8.57754 0.92696 9.5306 1.85392 9.5306 3.05897V7.87916C9.86417 7.83281 10.1501 7.78646 10.4837 7.78646C10.9125 7.74011 11.3414 7.74011 11.8179 7.74011C12.2468 7.74011 12.6757 7.74011 13.1046 7.78646C13.4381 7.78646 13.7717 7.83281 14.0576 7.87916V3.05897C14.0576 2.91992 14.0576 2.78088 14.1053 2.68818C14.3435 1.52948 15.4872 0.787916 16.6309 0.973307C17.7746 1.1587 18.5847 2.3174 18.3464 3.42975L17.3457 8.62072C20.4908 9.73308 22.5875 11.8187 22.5875 14.1361V15.8047H22.6352Z" fill="white"/>
<path d="M7.57707 11.9578C6.90993 11.9578 6.38574 12.7457 6.38574 13.719C6.38574 14.6923 6.90993 15.4802 7.57707 15.4802C8.24421 15.4802 8.76839 14.6923 8.76839 13.719C8.76839 12.7457 8.24421 11.9578 7.57707 11.9578Z" fill="white"/>
<path d="M15.8686 11.9578C15.2014 11.9578 14.6772 12.7457 14.6772 13.719C14.6772 14.6923 15.2014 15.4802 15.8686 15.4802C16.5357 15.4802 17.0599 14.6923 17.0599 13.719C17.1075 12.7457 16.5357 11.9578 15.8686 11.9578Z" fill="white"/>
</svg>
