<svg xmlns="http://www.w3.org/2000/svg" viewBox="0 0 245.56 242.12"><defs><style>.cls-1{fill:none;stroke:#5b5ef0;stroke-linecap:round;stroke-linejoin:round;stroke-width:5px;}.cls-2{fill:#5b5ef0;}</style></defs><g id="Capa_2" data-name="Capa 2"><g id="Layer_1" data-name="Layer 1"><path class="cls-1" d="M82.75,36.94S131.84,9.53,185.19,51.45c-15.83,11.72-24.62,18.76-24.62,18.76l60.67,11.43,13.19-65.36L208.64,35S179,7.19,141.81,2.5"/><path class="cls-1" d="M237.34,85.08s39,110.37-86.74,154.29"/><path class="cls-1" d="M210.73,93.74s10.34,37.09-4.43,68.57"/><path class="cls-1" d="M32.26,149.72s-11.77-44.7,7.32-72"/><path class="cls-1" d="M164.38,204.45c-55.11,29.6-105.23-14.66-105.23-14.66l22-17-60.09-12L10.5,225.55l23.74-17.29s40.45,30.18,57.16,31.36"/><path class="cls-1" d="M94,3.56S-22.91,32.92,7.57,159.28"/><circle class="cls-1" cx="120.8" cy="120.72" r="50.53"/><path class="cls-2" d="M116.32,133.29a3.16,3.16,0,0,1-1.69-2.83V120.08L125.68,129l-6.09,4.12a3.14,3.14,0,0,1-3.27.17m-5.77-38.76a13.93,13.93,0,0,1,15.13,2.18l14.81,12.88a16.55,16.55,0,0,1-1.67,26l-12.61,8.56a15,15,0,0,1-15.78.83,15.21,15.21,0,0,1-8.14-13.63V108.78a6.89,6.89,0,0,1,4-6.34,6.81,6.81,0,0,1,7.41.91l18.29,15a4.12,4.12,0,0,1-.3,6.59l-.91.61a2.1,2.1,0,0,0-.27-.24l-21.72-17.51v22.65a9.09,9.09,0,0,0,4.79,8,9,9,0,0,0,9.3-.48l12.08-8.17a10,10,0,0,0,.73-16l-18.28-15a12.71,12.71,0,0,0-9.21-2.88,14.93,14.93,0,0,1,2.37-1.37m-2.44-5.36a19.92,19.92,0,0,0-11.68,18.3v23.92a21.12,21.12,0,0,0,33.06,17.68l12.6-8.55a22.47,22.47,0,0,0,2.26-35.36L129.52,92.25a19.71,19.71,0,0,0-21.41-3.08"/></g></g></svg>