<svg width="34" height="40" viewBox="0 0 34 40" fill="none" xmlns="http://www.w3.org/2000/svg">
<path d="M12.8444 39.6988C10.8683 39.6988 8.71264 39.1566 6.91624 38.253C2.7845 36.0843 0.269531 31.747 0.269531 27.0482V12.7711C0.269531 8.07229 2.96414 3.91566 7.27552 1.92771C11.5869 -0.0602468 16.4372 0.662645 20.03 3.73493L28.8324 11.506C31.8863 14.2169 33.5031 18.1928 33.3234 22.3494C33.1438 26.506 30.9881 30.3012 27.5749 32.4699L20.03 37.5301C17.6947 38.9759 15.1797 39.6988 12.8444 39.6988ZM3.6827 13.494V27.0482C3.6827 30.4819 5.47911 33.5542 8.533 35.1807C11.5869 36.8072 15.0001 36.6265 17.8743 34.6386L25.4192 29.5783C27.9342 27.9518 29.551 25.0602 29.7306 21.9879C29.9102 18.9157 28.6528 16.0241 26.4971 14.0361L17.515 6.26506C15.0001 4.09638 11.5869 3.55421 8.533 5C7.99408 5.18072 7.6348 5.54216 7.09588 5.90361C9.07193 5.72289 11.048 6.26505 12.6647 7.53012L23.6228 16.5663C25.06 17.8313 25.9582 19.6385 25.7785 21.4458C25.7785 23.4337 24.7007 25.0602 23.0839 26.1446L15.8983 31.0241C14.2815 32.1084 12.1258 32.2892 10.3294 31.3855C8.533 30.4819 7.45516 28.6747 7.45516 26.6867V13.1325L20.3893 23.6145L20.5689 23.7952L21.1079 23.4337C21.8264 23.0723 22.1857 22.3494 22.1857 21.4458C22.1857 20.7229 21.8264 20 21.2875 19.4578L10.3294 10.4217C9.07193 9.33735 7.45516 9.15662 5.83839 9.87951C4.58091 10.4217 3.6827 11.6867 3.6827 13.494ZM11.048 20.1807V26.3253C11.048 27.0482 11.4073 27.5904 12.1258 27.9518C12.8444 28.3132 13.5629 28.3132 14.1019 27.7711L17.6947 25.241L11.048 20.1807Z" fill="#5D5FEF"/>
</svg>
