<svg width="113" height="127" viewBox="0 0 113 127" fill="none" xmlns="http://www.w3.org/2000/svg">
<g filter="url(#filter0_d_212_711)">
<path d="M47.8308 93.0127C43.3788 93.0127 38.5221 91.7986 34.4749 89.7749C25.1662 84.9182 19.5 75.2048 19.5 64.6819V32.7086C19.5 22.1857 25.5709 12.877 35.2843 8.42506C44.9977 3.97308 55.9253 5.59198 64.0198 12.4723L83.8514 29.8755C90.7317 35.9464 94.3743 44.8504 93.9695 54.1591C93.5648 63.4678 88.7081 71.967 81.0183 76.8237L64.0198 88.156C58.7584 91.3938 53.0922 93.0127 47.8308 93.0127ZM27.1898 34.3275V64.6819C27.1898 72.3717 31.237 79.2521 38.1174 82.8946C44.9977 86.5371 52.6875 86.1324 59.1631 81.6804L76.1616 70.3481C81.8278 66.7056 85.4703 60.23 85.875 53.3496C86.2798 46.4693 83.4467 39.9937 78.59 35.5417L58.3537 18.1385C52.6875 13.2818 44.9977 12.0676 38.1174 15.3054C36.9032 15.7101 36.0938 16.5196 34.8796 17.329C39.3316 16.9243 43.7835 18.1385 47.4261 20.9716L72.1144 41.2079C75.3522 44.0409 77.3758 48.0882 76.9711 52.1354C76.9711 56.5874 74.5427 60.23 70.9002 62.6583L54.7111 73.5859C51.0686 76.0143 46.2119 76.419 42.1646 74.3954C38.1174 72.3717 35.689 68.3245 35.689 63.8725V33.5181L64.8293 56.9922L65.234 57.3969L66.4482 56.5874C68.0671 55.778 68.8765 54.1591 68.8765 52.1354C68.8765 50.5165 68.0671 48.8976 66.8529 47.6835L42.1646 27.4472C39.3316 25.0188 35.689 24.6141 32.0465 26.233C29.2134 27.4472 27.1898 30.2803 27.1898 34.3275ZM43.7835 49.3024V63.063C43.7835 64.6819 44.593 65.8961 46.2119 66.7056C47.8308 67.515 49.4497 67.515 50.6639 66.3008L58.7584 60.6347L43.7835 49.3024Z" fill="url(#paint0_linear_212_711)"/>
</g>
<defs>
<filter id="filter0_d_212_711" x="0.5" y="0.935028" width="112.5" height="125.078" filterUnits="userSpaceOnUse" color-interpolation-filters="sRGB">
<feFlood flood-opacity="0" result="BackgroundImageFix"/>
<feColorMatrix in="SourceAlpha" type="matrix" values="0 0 0 0 0 0 0 0 0 0 0 0 0 0 0 0 0 0 127 0" result="hardAlpha"/>
<feOffset dy="14"/>
<feGaussianBlur stdDeviation="9.5"/>
<feComposite in2="hardAlpha" operator="out"/>
<feColorMatrix type="matrix" values="0 0 0 0 0 0 0 0 0 0 0 0 0 0 0 0 0 0 0.25 0"/>
<feBlend mode="normal" in2="BackgroundImageFix" result="effect1_dropShadow_212_711"/>
<feBlend mode="normal" in="SourceGraphic" in2="effect1_dropShadow_212_711" result="shape"/>
</filter>
<linearGradient id="paint0_linear_212_711" x1="56.75" y1="5.93503" x2="56.75" y2="93.0128" gradientUnits="userSpaceOnUse">
<stop stop-color="#A53FD6"/>
<stop offset="0.921875" stop-color="#5014FF"/>
</linearGradient>
</defs>
</svg>
